<?xml version="1.0" encoding="utf-8"?>
<!-- Generator: Adobe Illustrator 15.0.2, SVG Export Plug-In . SVG Version: 6.00 Build 0)  -->
<!DOCTYPE svg PUBLIC "-//W3C//DTD SVG 1.1//EN" "http://www.w3.org/Graphics/SVG/1.1/DTD/svg11.dtd">
<svg version="1.1" id="Layer_1" xmlns="http://www.w3.org/2000/svg" xmlns:xlink="http://www.w3.org/1999/xlink" x="0px" y="0px"
	 width="1368px" height="1368px" viewBox="0 0 1368 1368" enable-background="new 0 0 1368 1368" xml:space="preserve">
<g>
	<defs>
		<rect id="SVGID_1_" x="59.04" y="59.04" width="1278.72" height="1235.52"/>
	</defs>
	<clipPath id="SVGID_2_">
		<use xlink:href="#SVGID_1_"  overflow="visible"/>
	</clipPath>
	
		<polyline clip-path="url(#SVGID_2_)" fill="none" stroke="#666666" stroke-width="5.06" stroke-linecap="round" stroke-linejoin="round" stroke-miterlimit="10" points="
		725.22,598.54 725.27,598.32 725.59,597.09 726.17,594.81 726.84,592.21 727.44,589.86 727.94,587.9 728.38,586.2 728.6,585.32 
		729.02,583.69 729.48,581.9 730.03,579.76 730.67,577.24 731.34,574.65 731.83,572.73 732.02,571.97 732.03,571.92 	"/>
	
		<polyline clip-path="url(#SVGID_2_)" fill="none" stroke="#666666" stroke-width="4.87" stroke-linecap="round" stroke-linejoin="round" stroke-miterlimit="10" points="
		619.98,665.66 619.77,665.62 618.55,665.4 616.22,664.96 613.42,664.44 610.79,663.95 608.56,663.53 606.66,663.18 604.92,662.85 
		603.17,662.52 601.26,662.17 599.03,661.75 596.38,661.26 593.55,660.73 591.18,660.29 589.91,660.05 589.67,660 	"/>
	
		<polyline clip-path="url(#SVGID_2_)" fill="none" stroke="#666666" stroke-width="4.75" stroke-linecap="round" stroke-linejoin="round" stroke-miterlimit="10" points="
		783.44,712.93 783.62,713 784.66,713.41 786.84,714.28 789.82,715.46 792.99,716.72 795.92,717.88 798.45,718.89 800.66,719.77 
		802.67,720.57 803.72,720.99 805.69,721.77 807.77,722.6 810.12,723.53 812.84,724.61 815.93,725.84 819.1,727.1 821.83,728.19 
		823.54,728.87 824.14,729.11 824.18,729.12 	"/>
	
		<polyline clip-path="url(#SVGID_2_)" fill="none" stroke="#666666" stroke-width="4.64" stroke-linecap="round" stroke-linejoin="round" stroke-miterlimit="10" points="
		662.41,756.03 662.33,756.18 661.81,757.11 660.68,759.13 659.08,762.01 657.29,765.21 655.58,768.29 654.06,771.02 652.73,773.4 
		651.55,775.52 650.44,777.52 650.18,777.98 649.08,779.96 647.92,782.04 646.63,784.36 645.15,787.01 643.48,790.02 641.68,793.24 
		639.99,796.27 638.71,798.57 638.03,799.8 637.86,800.1 	"/>
	
		<polyline clip-path="url(#SVGID_2_)" fill="none" stroke="#666666" stroke-width="4.57" stroke-linecap="round" stroke-linejoin="round" stroke-miterlimit="10" points="
		660.74,607.63 660.66,607.51 660.2,606.72 659.13,604.9 657.44,602.03 655.31,598.4 653,594.46 650.73,590.59 648.63,587.01 
		646.74,583.8 645.06,580.92 643.52,578.3 642.06,575.82 640.99,574 639.57,571.57 638.1,569.07 636.53,566.39 634.79,563.43 
		632.85,560.13 630.69,556.46 628.39,552.53 626.09,548.61 624.03,545.1 622.47,542.44 621.54,540.86 621.19,540.27 621.16,540.21 	
		"/>
	
		<polyline clip-path="url(#SVGID_2_)" fill="none" stroke="#666666" stroke-width="4.43" stroke-linecap="round" stroke-linejoin="round" stroke-miterlimit="10" points="
		778.62,639.63 778.75,639.56 779.56,639.11 781.43,638.06 784.35,636.43 787.98,634.4 791.87,632.22 795.65,630.11 799.1,628.18 
		802.19,626.46 804.95,624.91 807.48,623.49 809.9,622.14 810.89,621.59 813.28,620.25 815.76,618.87 818.41,617.38 821.36,615.74 
		824.66,613.89 828.33,611.84 832.22,609.66 836.04,607.53 839.33,605.69 841.7,604.36 842.95,603.66 843.31,603.46 843.33,603.45 	
		"/>
	
		<polyline clip-path="url(#SVGID_2_)" fill="none" stroke="#666666" stroke-width="4.42" stroke-linecap="round" stroke-linejoin="round" stroke-miterlimit="10" points="
		621.99,657.28 621.89,657.25 621.27,657.06 619.71,656.61 616.97,655.8 613,654.64 607.93,653.15 602.02,651.42 595.6,649.53 
		589.01,647.6 582.5,645.69 576.28,643.86 570.43,642.14 565,640.55 559.96,639.07 555.27,637.69 550.86,636.4 546.65,635.16 
		542.55,633.96 538.52,632.78 538.23,632.69 534.19,631.51 530.11,630.31 525.91,629.08 521.51,627.79 516.85,626.42 511.83,624.94 
		506.43,623.36 500.61,621.65 494.4,619.83 487.9,617.92 481.3,615.98 474.84,614.09 468.86,612.33 463.69,610.81 459.62,609.62 
		456.77,608.78 455.1,608.29 454.4,608.09 454.28,608.05 	"/>
	
		<polyline clip-path="url(#SVGID_2_)" fill="none" stroke="#666666" stroke-width="4.42" stroke-linecap="round" stroke-linejoin="round" stroke-miterlimit="10" points="
		743.74,757.03 743.81,757.16 744.24,757.98 745.22,759.86 746.77,762.81 748.72,766.52 750.83,770.53 752.89,774.45 754.78,778.06 
		756.48,781.29 758,784.19 759.39,786.83 760.7,789.34 761.5,790.87 762.8,793.34 764.14,795.89 765.57,798.62 767.16,801.63 
		768.93,805.01 770.9,808.76 773,812.76 775.08,816.73 776.92,820.24 778.29,822.84 779.07,824.33 779.34,824.84 779.36,824.88 	"/>
	
		<polyline clip-path="url(#SVGID_2_)" fill="none" stroke="#666666" stroke-width="4.41" stroke-linecap="round" stroke-linejoin="round" stroke-miterlimit="10" points="
		698.29,766.64 698.29,766.75 698.24,767.45 698.12,769.17 697.92,772.15 697.64,776.38 697.29,781.65 696.89,787.62 696.47,793.9 
		696.05,800.16 695.64,806.17 695.27,811.79 694.92,816.98 694.6,821.77 694.3,826.2 694.02,830.36 693.76,834.34 693.5,838.23 
		693.36,840.31 693.1,844.17 692.83,848.08 692.56,852.14 692.28,856.41 691.97,861 691.64,865.97 691.27,871.37 690.88,877.18 
		690.47,883.34 690.05,889.65 689.63,895.85 689.25,901.57 688.93,906.42 688.68,910.12 688.52,912.54 688.43,913.77 688.41,914.15 
		688.41,914.17 	"/>
	
		<polyline clip-path="url(#SVGID_2_)" fill="none" stroke="#666666" stroke-width="4.41" stroke-linecap="round" stroke-linejoin="round" stroke-miterlimit="10" points="
		788.65,693.3 788.75,693.32 789.39,693.41 791,693.63 793.83,694.03 797.92,694.61 803.15,695.35 809.25,696.21 815.88,697.15 
		822.69,698.11 829.4,699.06 835.82,699.96 841.86,700.82 847.47,701.61 852.67,702.34 857.51,703.02 862.06,703.67 866.41,704.28 
		870.63,704.88 874.8,705.47 875.11,705.51 879.28,706.1 883.49,706.69 887.83,707.31 892.36,707.95 897.18,708.63 902.35,709.36 
		907.93,710.14 913.94,710.99 920.35,711.9 927.05,712.84 933.87,713.81 940.53,714.75 946.71,715.62 952.04,716.37 956.25,716.97 
		959.2,717.38 960.92,717.63 961.64,717.73 961.77,717.75 	"/>
	
		<polyline clip-path="url(#SVGID_2_)" fill="none" stroke="#666666" stroke-width="4.35" stroke-linecap="round" stroke-linejoin="round" stroke-miterlimit="10" points="
		716.16,596.74 716.18,596.64 716.27,595.99 716.5,594.38 716.91,591.55 717.49,587.45 718.25,582.22 719.12,576.13 720.07,569.52 
		721.04,562.74 722,556.07 722.92,549.69 723.78,543.7 724.58,538.13 725.32,532.98 726.01,528.18 726.66,523.66 727.28,519.34 
		727.88,515.14 728.47,511 729.07,506.86 729.67,502.66 730.29,498.35 730.94,493.83 731.63,489.02 732.37,483.86 733.17,478.3 
		734.03,472.31 734.95,465.92 735.91,459.23 736.89,452.44 737.84,445.82 738.71,439.71 739.47,434.46 740.06,430.33 740.47,427.48 
		740.71,425.85 740.8,425.19 740.82,425.08 	"/>
	
		<polyline clip-path="url(#SVGID_2_)" fill="none" stroke="#666666" stroke-width="4.26" stroke-linecap="round" stroke-linejoin="round" stroke-miterlimit="10" points="
		787.03,661.01 787.12,660.99 787.72,660.85 789.22,660.48 791.87,659.83 795.77,658.87 800.86,657.63 806.92,656.14 813.66,654.49 
		820.76,652.75 827.93,651 834.93,649.28 841.62,647.64 847.92,646.1 853.79,644.66 859.27,643.32 864.39,642.07 869.22,640.88 
		873.84,639.75 878.31,638.65 882.71,637.58 884.83,637.06 889.21,635.98 893.64,634.9 898.18,633.79 902.9,632.63 907.87,631.41 
		913.17,630.12 918.85,628.72 924.94,627.23 931.45,625.64 938.32,623.95 945.44,622.21 952.62,620.45 959.59,618.75 966.04,617.17 
		971.65,615.79 976.17,614.68 979.45,613.88 981.5,613.38 982.5,613.13 982.79,613.06 982.8,613.06 	"/>
	
		<polyline clip-path="url(#SVGID_2_)" fill="none" stroke="#666666" stroke-width="4.25" stroke-linecap="round" stroke-linejoin="round" stroke-miterlimit="10" points="
		729.58,762.91 729.61,763 729.79,763.57 730.24,765.01 731.05,767.58 732.23,771.37 733.79,776.34 735.66,782.31 737.76,789 
		739.99,796.11 742.26,803.34 744.5,810.47 746.64,817.32 748.68,823.81 750.58,829.88 752.36,835.55 754.02,840.85 755.59,845.84 
		757.07,850.58 758.51,855.15 759.91,859.62 761.3,864.05 761.33,864.17 762.72,868.59 764.12,873.05 765.55,877.62 767.04,882.36 
		768.6,887.34 770.26,892.63 772.03,898.29 773.94,904.36 775.97,910.83 778.11,917.68 780.35,924.81 782.62,932.05 784.86,939.18 
		786.96,945.91 788.85,951.92 790.43,956.95 791.63,960.79 792.45,963.41 792.92,964.9 793.11,965.5 793.14,965.6 	"/>
	
		<polyline clip-path="url(#SVGID_2_)" fill="none" stroke="#666666" stroke-width="4.22" stroke-linecap="round" stroke-linejoin="round" stroke-miterlimit="10" points="
		627.69,719.86 627.59,719.91 626.9,720.26 625.24,721.1 622.44,722.51 618.59,724.45 613.97,726.78 608.96,729.31 603.9,731.86 
		599.05,734.31 594.55,736.58 590.43,738.66 586.66,740.56 583.18,742.32 579.91,743.97 576.76,745.56 574.34,746.78 571.23,748.35 
		568.06,749.95 564.76,751.62 561.22,753.4 557.38,755.34 553.17,757.46 548.58,759.78 543.66,762.26 538.58,764.82 533.6,767.33 
		529.1,769.61 525.43,771.46 522.85,772.76 521.4,773.49 520.87,773.76 520.81,773.79 	"/>
	
		<polyline clip-path="url(#SVGID_2_)" fill="none" stroke="#666666" stroke-width="4.21" stroke-linecap="round" stroke-linejoin="round" stroke-miterlimit="10" points="
		671.04,760.22 671.01,760.3 670.78,760.83 670.22,762.18 669.21,764.58 667.71,768.17 665.73,772.93 663.31,778.7 660.57,785.26 
		657.62,792.33 654.57,799.62 651.53,806.89 648.57,813.96 645.75,820.72 643.08,827.09 640.59,833.06 638.25,838.66 636.05,843.91 
		633.97,848.88 631.99,853.63 630.07,858.23 628.18,862.73 626.38,867.03 624.52,871.5 622.64,876 620.71,880.6 618.73,885.36 
		616.64,890.34 614.44,895.6 612.1,901.21 609.59,907.2 606.92,913.59 604.09,920.36 601.13,927.45 598.08,934.74 595.03,942.03 
		592.08,949.1 589.34,955.65 586.93,961.41 584.95,966.15 583.46,969.72 582.46,972.1 581.91,973.43 581.69,973.95 581.66,974.03 	
		"/>
	
		<polyline clip-path="url(#SVGID_2_)" fill="none" stroke="#666666" stroke-width="4.14" stroke-linecap="round" stroke-linejoin="round" stroke-miterlimit="10" points="
		773.89,632.13 773.96,632.07 774.45,631.74 775.66,630.88 777.82,629.36 781.03,627.1 785.26,624.12 790.38,620.51 796.16,616.44 
		802.35,612.08 808.69,607.61 814.99,603.18 821.07,598.89 826.86,594.81 832.31,590.98 837.4,587.39 842.16,584.04 846.64,580.88 
		850.88,577.89 854.95,575.03 858.91,572.24 862.8,569.5 864.87,568.04 868.75,565.31 872.66,562.55 876.67,559.73 880.81,556.81 
		885.15,553.75 889.76,550.51 894.67,547.05 899.93,543.35 905.54,539.39 911.48,535.21 917.69,530.84 924.03,526.37 930.34,521.92 
		936.39,517.67 941.9,513.78 946.65,510.43 950.44,507.77 953.18,505.84 954.89,504.63 955.74,504.03 956,503.85 956.01,503.84 	"/>
	
		<polyline clip-path="url(#SVGID_2_)" fill="none" stroke="#666666" stroke-width="4.11" stroke-linecap="round" stroke-linejoin="round" stroke-miterlimit="10" points="
		758.09,747.55 758.15,747.62 758.52,748.07 759.47,749.23 761.15,751.29 763.65,754.35 766.93,758.37 770.89,763.21 775.35,768.67 
		780.11,774.5 784.98,780.45 789.79,786.34 794.43,792.03 798.84,797.42 802.98,802.48 806.84,807.21 810.46,811.64 813.86,815.8 
		817.09,819.75 820.19,823.55 823.21,827.24 826.19,830.89 827.16,832.08 830.13,835.72 833.13,839.39 836.2,843.15 839.38,847.04 
		842.72,851.13 846.26,855.46 850.05,860.09 854.09,865.05 858.42,870.34 862.99,875.94 867.76,881.78 872.63,887.74 877.45,893.64 
		882.04,899.26 886.2,904.34 889.74,908.67 892.52,912.07 894.48,914.47 895.66,915.92 896.21,916.59 896.34,916.76 896.35,916.76 	
		"/>
	
		<polyline clip-path="url(#SVGID_2_)" fill="none" stroke="#666666" stroke-width="4.1" stroke-linecap="round" stroke-linejoin="round" stroke-miterlimit="10" points="
		635.77,629.87 635.7,629.82 635.21,629.45 634,628.54 631.85,626.91 628.66,624.51 624.5,621.37 619.5,617.6 613.92,613.39 
		608.01,608.93 602.01,604.4 596.11,599.95 590.46,595.69 585.12,591.66 580.12,587.89 575.46,584.37 571.1,581.08 566.99,577.99 
		563.08,575.04 559.31,572.19 555.61,569.4 552.5,567.05 548.83,564.29 545.13,561.49 541.34,558.63 537.4,555.66 533.26,552.54 
		528.86,549.22 524.14,545.66 519.09,541.85 513.7,537.78 507.99,533.48 502.07,529 496.06,524.47 490.17,520.03 484.64,515.86 
		479.75,512.17 475.7,509.12 472.66,506.82 470.64,505.29 469.54,504.46 469.13,504.16 469.08,504.12 	"/>
	
		<polyline clip-path="url(#SVGID_2_)" fill="none" stroke="#666666" stroke-width="4.06" stroke-linecap="round" stroke-linejoin="round" stroke-miterlimit="10" points="
		752.29,610.81 752.34,610.74 752.69,610.22 753.57,608.94 755.12,606.68 757.4,603.35 760.37,599.02 763.89,593.87 767.79,588.17 
		771.89,582.18 776.01,576.16 780.03,570.29 783.85,564.7 787.45,559.45 790.8,554.56 793.92,550 796.84,545.73 799.6,541.7 
		802.24,537.85 804.8,534.1 807.33,530.4 808.04,529.37 810.56,525.69 813.11,521.96 815.73,518.14 818.45,514.16 821.32,509.97 
		824.38,505.5 827.67,500.7 831.19,495.54 834.96,490.04 838.94,484.23 843.04,478.23 847.17,472.2 851.16,466.38 854.81,461.04 
		857.96,456.44 860.46,452.8 862.22,450.21 863.29,448.66 863.78,447.95 863.89,447.78 	"/>
	
		<polyline clip-path="url(#SVGID_2_)" fill="none" stroke="#666666" stroke-width="4.06" stroke-linecap="round" stroke-linejoin="round" stroke-miterlimit="10" points="
		658.74,608.84 658.7,608.76 658.39,608.27 657.6,607.02 656.21,604.78 654.13,601.45 651.39,597.07 648.08,591.75 644.33,585.75 
		640.31,579.31 636.19,572.7 632.09,566.14 628.12,559.78 624.34,553.73 620.79,548.04 617.46,542.71 614.35,537.73 611.43,533.04 
		608.66,528.6 606,524.35 603.42,520.22 600.89,516.16 599.31,513.64 596.79,509.59 594.24,505.52 591.64,501.35 588.95,497.03 
		586.12,492.51 583.13,487.72 579.94,482.61 576.53,477.14 572.89,471.31 569.03,465.13 565,458.67 560.88,452.06 556.77,445.48 
		552.82,439.16 549.21,433.37 546.08,428.36 543.57,424.34 541.74,421.41 540.57,419.54 539.98,418.59 539.79,418.29 539.78,418.27 
			"/>
	
		<polyline clip-path="url(#SVGID_2_)" fill="none" stroke="#666666" stroke-width="4.04" stroke-linecap="round" stroke-linejoin="round" stroke-miterlimit="10" points="
		778.58,723.13 778.66,723.17 779.18,723.46 780.48,724.19 782.8,725.49 786.24,727.42 790.77,729.96 796.23,733.02 802.38,736.46 
		808.95,740.14 815.66,743.9 822.3,747.62 828.71,751.21 834.8,754.62 840.51,757.82 845.85,760.81 850.84,763.61 855.54,766.24 
		859.99,768.74 864.27,771.14 868.44,773.47 872.55,775.78 873.96,776.56 878.06,778.86 882.2,781.18 886.44,783.55 890.83,786.01 
		895.43,788.59 900.32,791.33 905.54,794.25 911.12,797.38 917.08,800.72 923.4,804.26 929.98,807.95 936.7,811.71 943.35,815.44 
		949.69,818.99 955.44,822.21 960.33,824.95 964.18,827.11 966.9,828.63 968.55,829.55 969.31,829.98 969.5,830.09 969.51,830.09 	
		"/>
	
		<polyline clip-path="url(#SVGID_2_)" fill="none" stroke="#666666" stroke-width="4" stroke-linecap="round" stroke-linejoin="round" stroke-miterlimit="10" points="
		646.82,744.88 646.76,744.95 646.37,745.38 645.38,746.47 643.62,748.43 641,751.34 637.54,755.18 633.35,759.83 628.61,765.1 
		623.53,770.75 618.3,776.55 613.11,782.32 608.07,787.92 603.28,793.25 598.76,798.26 594.54,802.95 590.58,807.35 586.87,811.47 
		583.35,815.38 579.98,819.13 576.71,822.76 573.49,826.33 571.3,828.77 568.1,832.32 564.87,835.9 561.58,839.56 558.17,843.35 
		554.59,847.32 550.8,851.53 546.77,856.01 542.45,860.81 537.84,865.93 532.96,871.35 527.86,877.01 522.63,882.82 517.42,888.61 
		512.41,894.17 507.81,899.28 503.82,903.72 500.6,907.3 498.24,909.92 496.72,911.61 495.93,912.48 495.67,912.77 495.65,912.8 	
		"/>
	
		<polyline clip-path="url(#SVGID_2_)" fill="none" stroke="#666666" stroke-width="3.98" stroke-linecap="round" stroke-linejoin="round" stroke-miterlimit="10" points="
		628.4,721.22 628.32,721.26 627.84,721.52 626.6,722.17 624.37,723.35 621.01,725.12 616.53,727.49 611.01,730.4 604.65,733.75 
		597.71,737.41 590.43,741.25 583.07,745.13 575.81,748.96 568.79,752.66 562.11,756.18 555.81,759.5 549.89,762.63 544.32,765.56 
		539.08,768.33 534.1,770.95 529.32,773.47 524.69,775.91 520.15,778.31 515.65,780.68 515.27,780.88 510.77,783.26 506.24,785.65 
		501.62,788.08 496.86,790.59 491.89,793.21 486.67,795.96 481.14,798.88 475.24,801.99 468.97,805.3 462.32,808.81 455.33,812.49 
		448.08,816.32 440.71,820.2 433.4,824.05 426.41,827.74 419.98,831.14 414.36,834.1 409.76,836.52 406.29,838.35 403.95,839.59 
		402.62,840.29 402.06,840.58 401.97,840.63 	"/>
	
		<polyline clip-path="url(#SVGID_2_)" fill="none" stroke="#666666" stroke-width="3.98" stroke-linecap="round" stroke-linejoin="round" stroke-miterlimit="10" points="
		622.89,708.3 622.82,708.32 622.35,708.48 621.16,708.87 618.99,709.6 615.67,710.7 611.12,712.21 605.37,714.12 598.53,716.39 
		590.79,718.97 582.37,721.76 573.54,724.7 564.51,727.7 555.5,730.69 546.66,733.63 538.11,736.47 529.93,739.18 522.16,741.77 
		514.79,744.21 507.82,746.53 501.21,748.72 494.92,750.82 488.89,752.82 483.06,754.76 477.38,756.64 471.8,758.49 466.27,760.33 
		463.99,761.09 458.48,762.92 452.92,764.77 447.29,766.64 441.54,768.55 435.6,770.52 429.42,772.58 422.94,774.73 416.12,776.99 
		408.92,779.38 401.32,781.91 393.3,784.58 384.89,787.37 376.16,790.27 367.2,793.25 358.14,796.25 349.19,799.23 340.56,802.1 
		332.5,804.77 325.24,807.18 319.01,809.26 313.93,810.94 310.09,812.22 307.44,813.1 305.86,813.63 305.12,813.87 304.92,813.94 	
		"/>
	
		<polyline clip-path="url(#SVGID_2_)" fill="none" stroke="#666666" stroke-width="3.98" stroke-linecap="round" stroke-linejoin="round" stroke-miterlimit="10" points="
		618.77,687.82 618.69,687.83 618.1,687.88 616.62,687.99 613.98,688.19 610.06,688.49 604.89,688.88 598.65,689.35 591.6,689.89 
		584.07,690.46 576.35,691.05 568.69,691.63 561.29,692.19 554.26,692.72 547.65,693.23 541.47,693.7 535.69,694.13 530.26,694.55 
		525.1,694.94 520.16,695.31 515.35,695.68 510.61,696.04 508.34,696.21 503.62,696.57 498.86,696.93 493.99,697.3 488.95,697.68 
		483.66,698.09 478.05,698.51 472.06,698.97 465.66,699.45 458.82,699.97 451.59,700.52 444.03,701.1 436.3,701.68 428.63,702.27 
		421.3,702.82 414.61,703.33 408.87,703.77 404.31,704.11 401.04,704.36 399,704.52 398.01,704.59 397.73,704.61 397.72,704.61 	"/>
	
		<polyline clip-path="url(#SVGID_2_)" fill="none" stroke="#666666" stroke-width="3.95" stroke-linecap="round" stroke-linejoin="round" stroke-miterlimit="10" points="
		738.32,603.06 738.35,602.99 738.56,602.51 739.09,601.3 740.05,599.1 741.51,595.77 743.49,591.25 745.96,585.6 748.87,578.98 
		752.1,571.61 755.55,563.72 759.12,555.58 762.71,547.4 766.23,539.36 769.63,531.59 772.89,524.16 775.97,517.13 778.88,510.49 
		781.62,504.23 784.22,498.31 786.69,492.68 789.05,487.28 791.33,482.07 793.57,476.97 795.77,471.95 797.49,468.03 799.68,463.03 
		801.88,457.99 804.12,452.88 806.42,447.63 808.81,442.19 811.3,436.5 813.93,430.51 816.71,424.17 819.65,417.44 822.77,410.32 
		826.06,402.81 829.5,394.97 833.05,386.88 836.64,378.68 840.19,370.57 843.62,362.76 846.79,355.51 849.62,349.07 852,343.63 
		853.88,339.35 855.23,336.25 856.1,334.26 856.56,333.22 856.72,332.85 856.74,332.82 	"/>
	
		<polyline clip-path="url(#SVGID_2_)" fill="none" stroke="#666666" stroke-width="3.92" stroke-linecap="round" stroke-linejoin="round" stroke-miterlimit="10" points="
		698.32,766.64 698.31,766.72 698.28,767.23 698.19,768.53 698.03,770.89 697.79,774.49 697.47,779.38 697.06,785.51 696.58,792.72 
		696.04,800.79 695.46,809.45 694.86,818.44 694.25,827.5 693.66,836.45 693.08,845.13 692.52,853.45 691.99,861.35 691.5,868.81 
		691.03,875.86 690.58,882.53 690.16,888.86 689.75,894.91 689.36,900.74 688.99,906.43 688.61,912.01 688.24,917.55 688.17,918.62 
		687.8,924.15 687.43,929.72 687.05,935.38 686.67,941.18 686.26,947.19 685.85,953.46 685.41,960.06 684.94,967.03 684.45,974.42 
		683.93,982.24 683.38,990.48 682.8,999.1 682.2,1008.01 681.6,1017.08 681,1026.11 680.41,1034.86 679.86,1043.08 679.37,1050.5 
		678.94,1056.87 678.6,1062.02 678.34,1065.89 678.17,1068.5 678.07,1070 678.02,1070.65 678.01,1070.78 	"/>
	
		<polyline clip-path="url(#SVGID_2_)" fill="none" stroke="#666666" stroke-width="3.89" stroke-linecap="round" stroke-linejoin="round" stroke-miterlimit="10" points="
		636.59,733.9 636.53,733.94 636.15,734.24 635.17,735.01 633.38,736.4 630.64,738.54 626.88,741.46 622.12,745.18 616.44,749.6 
		610,754.62 602.98,760.1 595.58,765.87 587.99,771.78 580.4,777.69 572.93,783.51 565.7,789.15 558.76,794.56 552.15,799.71 
		545.88,804.6 539.95,809.22 534.32,813.61 528.96,817.79 523.84,821.78 518.89,825.64 514.09,829.38 509.38,833.05 504.72,836.69 
		501.31,839.34 496.67,842.96 492,846.6 487.27,850.28 482.43,854.05 477.45,857.94 472.26,861.98 466.83,866.21 461.13,870.66 
		455.1,875.36 448.75,880.31 442.04,885.53 435.02,891.01 427.71,896.71 420.19,902.57 412.58,908.5 405.02,914.39 397.69,920.1 
		390.79,925.48 384.52,930.37 379.06,934.62 374.55,938.14 371.05,940.87 368.56,942.81 366.99,944.04 366.18,944.66 365.91,944.88 
		365.89,944.89 	"/>
	
		<polyline clip-path="url(#SVGID_2_)" fill="none" stroke="#666666" stroke-width="3.86" stroke-linecap="round" stroke-linejoin="round" stroke-miterlimit="10" points="
		618.7,686.69 618.62,686.7 618.14,686.73 616.9,686.8 614.63,686.95 611.16,687.16 606.4,687.46 600.36,687.84 593.18,688.29 
		585.03,688.8 576.15,689.36 566.8,689.94 557.22,690.54 547.64,691.14 538.22,691.73 529.1,692.3 520.35,692.85 512.03,693.37 
		504.14,693.86 496.66,694.33 489.58,694.78 482.83,695.2 476.37,695.6 470.14,695.99 464.08,696.37 458.14,696.74 452.26,697.11 
		448.34,697.36 442.48,697.72 436.59,698.09 430.61,698.47 424.5,698.85 418.21,699.24 411.66,699.65 404.8,700.08 397.59,700.53 
		389.98,701.01 381.94,701.51 373.47,702.04 364.59,702.6 355.35,703.18 345.86,703.77 336.25,704.38 326.71,704.97 317.48,705.55 
		308.8,706.09 300.92,706.59 294.08,707.02 288.45,707.37 284.1,707.64 281.02,707.83 279.1,707.95 278.13,708.01 277.82,708.03 
		277.79,708.04 	"/>
	
		<polyline clip-path="url(#SVGID_2_)" fill="none" stroke="#666666" stroke-width="3.85" stroke-linecap="round" stroke-linejoin="round" stroke-miterlimit="10" points="
		687.73,597.44 687.71,597.35 687.6,596.79 687.33,595.38 686.83,592.84 686.1,589.05 685.12,584.01 683.93,577.87 682.57,570.87 
		681.1,563.29 679.58,555.44 678.05,547.57 676.56,539.89 675.13,532.53 673.78,525.56 672.51,519.03 671.32,512.9 670.21,507.15 
		669.15,501.71 668.15,496.53 667.18,491.53 666.23,486.65 665.29,481.82 665.03,480.46 664.09,475.64 663.15,470.78 662.19,465.82 
		661.19,460.7 660.15,455.34 659.05,449.68 657.89,443.66 656.64,437.24 655.31,430.4 653.9,423.14 652.43,415.53 650.91,407.69 
		649.38,399.8 647.88,392.1 646.48,384.89 645.23,378.45 644.19,373.06 643.38,368.89 642.81,365.98 642.48,364.25 642.33,363.47 
		642.29,363.29 	"/>
	
		<polyline clip-path="url(#SVGID_2_)" fill="none" stroke="#666666" stroke-width="3.82" stroke-linecap="round" stroke-linejoin="round" stroke-miterlimit="10" points="
		788.65,669.38 788.72,669.37 789.2,669.3 790.45,669.12 792.71,668.8 796.18,668.31 800.93,667.64 806.93,666.79 814.07,665.78 
		822.14,664.64 830.92,663.39 840.14,662.09 849.55,660.76 858.95,659.43 868.16,658.13 877.07,656.87 885.59,655.66 893.69,654.51 
		901.37,653.43 908.63,652.4 915.52,651.42 922.08,650.5 928.36,649.61 934.44,648.75 940.35,647.91 946.17,647.09 951.94,646.27 
		954.21,645.95 959.97,645.14 965.76,644.32 971.63,643.49 977.63,642.64 983.82,641.76 990.27,640.85 997.02,639.89 
		1004.13,638.89 1011.64,637.82 1019.58,636.7 1027.939,635.52 1036.71,634.28 1045.811,632.99 1055.16,631.67 1064.6,630.33 
		1073.93,629.01 1082.93,627.74 1091.33,626.55 1098.88,625.48 1105.37,624.56 1110.64,623.82 1114.63,623.25 1117.38,622.86 
		1119.01,622.63 1119.77,622.52 1119.97,622.5 	"/>
	
		<polyline clip-path="url(#SVGID_2_)" fill="none" stroke="#666666" stroke-width="3.82" stroke-linecap="round" stroke-linejoin="round" stroke-miterlimit="10" points="
		789.09,689.6 789.16,689.61 789.65,689.66 790.91,689.78 793.21,690 796.71,690.34 801.51,690.81 807.56,691.4 814.74,692.09 
		822.85,692.88 831.64,693.73 840.84,694.62 850.23,695.54 859.57,696.44 868.72,697.33 877.54,698.18 885.97,699 893.97,699.78 
		901.55,700.51 908.72,701.21 915.51,701.87 921.99,702.5 928.21,703.1 934.22,703.68 940.08,704.25 945.86,704.81 951.6,705.37 
		952.47,705.45 958.21,706.01 963.97,706.57 969.82,707.14 975.8,707.72 981.98,708.32 988.42,708.94 995.16,709.59 1002.27,710.28 
		1009.79,711.01 1017.73,711.78 1026.09,712.6 1034.87,713.45 1043.97,714.33 1053.3,715.23 1062.7,716.15 1071.96,717.04 
		1080.85,717.91 1089.09,718.71 1096.45,719.42 1102.7,720.03 1107.71,720.51 1111.43,720.87 1113.92,721.11 1115.33,721.25 
		1115.93,721.31 1116.05,721.32 	"/>
	
		<polyline clip-path="url(#SVGID_2_)" fill="none" stroke="#666666" stroke-width="3.81" stroke-linecap="round" stroke-linejoin="round" stroke-miterlimit="10" points="
		654.76,751.22 654.72,751.28 654.44,751.67 653.72,752.69 652.42,754.54 650.42,757.38 647.67,761.27 644.19,766.21 640.05,772.09 
		635.34,778.77 630.21,786.05 624.8,793.72 619.26,801.58 613.71,809.45 608.26,817.19 602.97,824.69 597.9,831.89 593.07,838.74 
		588.49,845.24 584.15,851.39 580.03,857.23 576.12,862.79 572.37,868.1 568.76,873.23 565.25,878.21 561.8,883.1 558.4,887.93 
		555.88,891.5 552.49,896.31 549.08,901.15 545.62,906.05 542.08,911.07 538.44,916.24 534.65,921.61 530.69,927.24 526.52,933.15 
		522.12,939.39 517.47,945.99 512.58,952.93 507.44,960.21 502.1,967.79 496.61,975.58 491.05,983.47 485.52,991.31 480.17,998.91 
		475.12,1006.06 470.54,1012.57 466.55,1018.23 463.24,1022.92 460.68,1026.56 458.85,1029.15 457.7,1030.78 457.11,1031.62 
		456.91,1031.9 456.89,1031.93 	"/>
	
		<polyline clip-path="url(#SVGID_2_)" fill="none" stroke="#666666" stroke-width="3.79" stroke-linecap="round" stroke-linejoin="round" stroke-miterlimit="10" points="
		718.7,765.56 718.71,765.63 718.79,766.11 719.01,767.34 719.4,769.59 720,773.03 720.82,777.74 721.86,783.7 723.1,790.8 
		724.5,798.84 726.03,807.59 727.63,816.79 729.27,826.2 730.91,835.6 732.52,844.83 734.08,853.76 735.57,862.31 736.99,870.45 
		738.33,878.16 739.61,885.46 740.81,892.38 741.96,898.97 743.06,905.28 744.13,911.37 745.16,917.3 746.18,923.13 747.18,928.9 
		747.71,931.93 748.72,937.69 749.73,943.47 750.75,949.34 751.8,955.34 752.88,961.53 754,967.97 755.17,974.71 756.41,981.8 
		757.72,989.29 759.1,997.21 760.55,1005.55 762.08,1014.29 763.66,1023.38 765.29,1032.72 766.94,1042.15 768.57,1051.5 
		770.14,1060.53 771.62,1068.99 772.95,1076.63 774.1,1083.23 775.04,1088.63 775.76,1092.75 776.26,1095.63 776.57,1097.38 
		776.72,1098.23 776.76,1098.48 776.76,1098.49 	"/>
	
		<polyline clip-path="url(#SVGID_2_)" fill="none" stroke="#666666" stroke-width="3.75" stroke-linecap="round" stroke-linejoin="round" stroke-miterlimit="10" points="
		775.02,728.94 775.08,728.98 775.48,729.25 776.51,729.94 778.39,731.21 781.28,733.14 785.24,735.8 790.26,739.16 796.24,743.17 
		803.02,747.71 810.42,752.67 818.21,757.89 826.19,763.24 834.18,768.6 842.04,773.86 849.65,778.97 856.95,783.86 863.91,788.52 
		870.5,792.94 876.74,797.12 882.66,801.09 888.29,804.86 893.69,808.48 898.89,811.96 903.94,815.35 908.9,818.67 913.81,821.96 
		917.3,824.3 922.19,827.58 927.1,830.87 932.08,834.21 937.17,837.62 942.42,841.14 947.88,844.8 953.59,848.63 959.6,852.66 
		965.94,856.91 972.64,861.39 979.7,866.12 987.09,871.08 994.79,876.24 1002.7,881.54 1010.71,886.91 1018.67,892.24 
		1026.38,897.41 1033.63,902.27 1040.22,906.69 1045.96,910.53 1050.7,913.71 1054.37,916.17 1056.97,917.91 1058.61,919.01 
		1059.439,919.57 1059.72,919.76 1059.75,919.78 	"/>
	
		<polyline clip-path="url(#SVGID_2_)" fill="none" stroke="#666666" stroke-width="3.75" stroke-linecap="round" stroke-linejoin="round" stroke-miterlimit="10" points="
		626.09,646.2 626.03,646.17 625.58,645.97 624.44,645.45 622.36,644.51 619.17,643.08 614.81,641.11 609.29,638.62 602.72,635.65 
		595.28,632.3 587.19,628.65 578.69,624.81 570,620.89 561.31,616.97 552.78,613.12 544.54,609.4 536.64,605.84 529.13,602.45 
		522.02,599.24 515.28,596.2 508.89,593.32 502.81,590.58 496.98,587.95 491.36,585.41 485.88,582.94 480.5,580.51 475.17,578.11 
		472.55,576.92 467.24,574.53 461.89,572.11 456.47,569.67 450.92,567.17 445.2,564.58 439.25,561.9 433.02,559.09 426.46,556.13 
		419.53,553 412.21,549.7 404.5,546.22 396.42,542.57 388.01,538.78 379.38,534.89 370.66,530.95 362.03,527.06 353.7,523.3 
		345.89,519.78 338.86,516.6 332.78,513.86 327.82,511.63 324.04,509.92 321.42,508.74 319.83,508.02 319.06,507.67 318.85,507.58 
		318.84,507.57 	"/>
	
		<polyline clip-path="url(#SVGID_2_)" fill="none" stroke="#666666" stroke-width="3.74" stroke-linecap="round" stroke-linejoin="round" stroke-miterlimit="10" points="
		699.83,595.97 699.83,595.9 699.81,595.41 699.75,594.17 699.63,591.9 699.46,588.42 699.23,583.65 698.94,577.61 698.58,570.42 
		698.19,562.26 697.75,553.38 697.29,544.03 696.83,534.47 696.36,524.9 695.9,515.49 695.45,506.39 695.03,497.67 694.62,489.36 
		694.24,481.49 693.87,474.04 693.53,466.97 693.2,460.25 692.88,453.8 692.58,447.59 692.28,441.54 691.99,435.61 691.71,429.74 
		691.53,426.11 691.24,420.25 690.95,414.37 690.66,408.4 690.36,402.3 690.06,396 689.74,389.46 689.4,382.61 689.05,375.4 
		688.68,367.79 688.28,359.75 687.87,351.28 687.44,342.4 686.98,333.17 686.52,323.68 686.05,314.08 685.59,304.56 685.14,295.35 
		684.71,286.7 684.33,278.86 684,272.07 683.72,266.49 683.51,262.19 683.37,259.17 683.27,257.3 683.23,256.36 683.22,256.07 
		683.21,256.05 	"/>
	
		<polyline clip-path="url(#SVGID_2_)" fill="none" stroke="#666666" stroke-width="3.73" stroke-linecap="round" stroke-linejoin="round" stroke-miterlimit="10" points="
		637.34,627.85 637.28,627.81 636.9,627.51 635.94,626.73 634.17,625.31 631.46,623.14 627.74,620.15 623.03,616.38 617.42,611.87 
		611.05,606.76 604.1,601.18 596.78,595.31 589.28,589.29 581.77,583.27 574.39,577.34 567.23,571.6 560.36,566.09 553.83,560.84 
		547.63,555.87 541.75,551.16 536.19,546.69 530.89,542.43 525.81,538.36 520.93,534.44 516.17,530.63 511.51,526.89 506.9,523.19 
		503.51,520.46 498.91,516.78 494.3,513.07 489.62,509.32 484.83,505.48 479.9,501.52 474.77,497.41 469.4,493.1 463.76,488.57 
		457.8,483.79 451.51,478.74 444.89,473.43 437.94,467.85 430.71,462.05 423.27,456.08 415.74,450.04 408.27,444.04 401.02,438.22 
		394.19,432.75 387.99,427.77 382.58,423.43 378.11,419.84 374.64,417.06 372.18,415.08 370.62,413.83 369.82,413.19 369.55,412.97 
		369.52,412.95 	"/>
	
		<polyline clip-path="url(#SVGID_2_)" fill="none" stroke="#666666" stroke-width="3.73" stroke-linecap="round" stroke-linejoin="round" stroke-miterlimit="10" points="
		674.68,601.06 674.65,600.99 674.49,600.54 674.06,599.38 673.28,597.25 672.09,594 670.46,589.53 668.39,583.86 665.92,577.1 
		663.12,569.43 660.06,561.05 656.83,552.22 653.53,543.17 650.21,534.1 646.95,525.17 643.79,516.51 640.75,508.2 637.86,500.29 
		635.12,492.78 632.52,485.67 630.06,478.93 627.71,472.51 625.47,466.37 623.31,460.46 621.21,454.71 619.15,449.07 617.11,443.5 
		615.46,438.99 613.44,433.44 611.4,427.87 609.34,422.22 607.23,416.44 605.05,410.48 602.79,404.3 600.42,397.82 597.94,391.01 
		595.31,383.83 592.54,376.24 589.62,368.25 586.56,359.87 583.37,351.15 580.1,342.18 576.78,333.09 573.47,324.05 570.27,315.28 
		567.25,307.01 564.49,299.47 562.09,292.89 560.09,287.42 558.53,283.16 557.42,280.11 556.71,278.16 556.33,277.14 556.2,276.78 
		556.19,276.74 	"/>
	
		<polyline clip-path="url(#SVGID_2_)" fill="none" stroke="#666666" stroke-width="3.72" stroke-linecap="round" stroke-linejoin="round" stroke-miterlimit="10" points="
		620.02,665.47 619.95,665.45 619.47,665.36 618.25,665.13 616.03,664.71 612.62,664.07 607.94,663.18 602.01,662.06 594.94,660.72 
		586.91,659.2 578.15,657.55 568.93,655.8 559.47,654.01 549.99,652.22 540.68,650.46 531.64,648.75 522.98,647.11 514.72,645.55 
		506.89,644.07 499.48,642.67 492.45,641.34 485.76,640.07 479.35,638.86 473.18,637.7 467.18,636.56 461.3,635.45 455.48,634.35 
		451.03,633.51 445.23,632.41 439.41,631.31 433.51,630.19 427.47,629.05 421.25,627.87 414.79,626.65 408.02,625.37 400.9,624.03 
		393.4,622.61 385.47,621.11 377.11,619.53 368.35,617.87 359.24,616.15 349.87,614.37 340.37,612.58 330.94,610.79 321.79,609.06 
		313.16,607.43 305.32,605.95 298.48,604.65 292.81,603.58 288.41,602.75 285.26,602.16 283.27,601.78 282.24,601.58 281.88,601.52 
		281.84,601.51 	"/>
	
		<polyline clip-path="url(#SVGID_2_)" fill="none" stroke="#666666" stroke-width="3.68" stroke-linecap="round" stroke-linejoin="round" stroke-miterlimit="10" points="
		784.88,709.05 784.94,709.07 785.4,709.23 786.56,709.63 788.69,710.36 791.95,711.48 796.44,713.01 802.13,714.96 808.93,717.29 
		816.67,719.94 825.12,722.84 834.05,725.9 843.23,729.04 852.45,732.2 861.53,735.31 870.36,738.33 878.84,741.24 886.92,744.01 
		894.6,746.64 901.87,749.13 908.77,751.49 915.34,753.74 921.61,755.89 927.66,757.96 933.52,759.97 939.26,761.93 944.92,763.87 
		950.56,765.8 950.69,765.85 956.32,767.78 961.98,769.72 967.72,771.68 973.58,773.69 979.61,775.76 985.88,777.91 992.44,780.15 
		999.33,782.51 1006.6,785 1014.27,787.63 1022.35,790.4 1030.82,793.3 1039.64,796.32 1048.73,799.43 1057.95,802.59 
		1067.14,805.74 1076.09,808.81 1084.58,811.71 1092.35,814.37 1099.189,816.72 1104.93,818.68 1109.46,820.24 1112.77,821.37 
		1114.939,822.11 1116.14,822.52 1116.61,822.69 1116.689,822.71 	"/>
	
		<polyline clip-path="url(#SVGID_2_)" fill="none" stroke="#666666" stroke-width="3.68" stroke-linecap="round" stroke-linejoin="round" stroke-miterlimit="10" points="
		771.55,628.96 771.61,628.92 771.99,628.62 772.96,627.87 774.74,626.49 777.47,624.37 781.22,621.46 785.98,617.77 791.66,613.36 
		798.12,608.35 805.18,602.88 812.63,597.1 820.28,591.16 827.96,585.2 835.53,579.34 842.87,573.64 849.93,568.17 856.65,562.95 
		863.04,558 869.08,553.31 874.82,548.86 880.28,544.62 885.5,540.57 890.53,536.67 895.41,532.89 900.18,529.18 904.9,525.52 
		909.42,522.02 914.11,518.38 918.83,514.72 923.61,511.01 928.5,507.22 933.53,503.32 938.76,499.26 944.22,495.02 949.97,490.56 
		956.03,485.86 962.43,480.9 969.17,475.67 976.24,470.19 983.6,464.48 991.18,458.6 998.86,452.64 1006.52,446.7 1013.97,440.92 
		1021.02,435.45 1027.47,430.45 1033.13,426.06 1037.87,422.38 1041.6,419.49 1044.311,417.39 1046.07,416.03 1047.02,415.28 
		1047.39,415 1047.45,414.95 	"/>
	
		<polyline clip-path="url(#SVGID_2_)" fill="none" stroke="#666666" stroke-width="3.67" stroke-linecap="round" stroke-linejoin="round" stroke-miterlimit="10" points="
		678.08,762.8 678.06,762.87 677.91,763.33 677.54,764.49 676.87,766.62 675.82,769.89 674.39,774.39 672.57,780.11 670.39,786.95 
		667.91,794.75 665.19,803.28 662.32,812.32 659.35,821.63 656.37,830.99 653.43,840.23 650.57,849.23 647.81,857.88 645.18,866.15 
		642.68,874 640.32,881.44 638.07,888.5 635.93,895.21 633.89,901.63 631.92,907.8 630.02,913.79 628.16,919.63 626.32,925.39 
		624.5,931.12 624.07,932.48 622.25,938.19 620.42,943.94 618.57,949.76 616.67,955.7 614.73,961.83 612.7,968.18 610.59,974.82 
		608.37,981.8 606.03,989.15 603.56,996.9 600.96,1005.07 598.23,1013.64 595.39,1022.56 592.46,1031.76 589.49,1041.12 
		586.51,1050.46 583.6,1059.59 580.84,1068.29 578.29,1076.3 576.03,1083.4 574.11,1089.42 572.58,1094.23 571.44,1097.81 
		570.67,1100.21 570.23,1101.6 570.04,1102.21 570,1102.34 	"/>
	
		<polyline clip-path="url(#SVGID_2_)" fill="none" stroke="#666666" stroke-width="3.65" stroke-linecap="round" stroke-linejoin="round" stroke-miterlimit="10" points="
		760.34,745.64 760.39,745.7 760.7,746.06 761.51,746.98 763,748.67 765.27,751.27 768.39,754.83 772.35,759.35 777.09,764.76 
		782.48,770.91 788.37,777.63 794.6,784.74 801,792.04 807.42,799.38 813.76,806.61 819.91,813.63 825.83,820.38 831.47,826.82 
		836.83,832.93 841.9,838.73 846.72,844.22 851.3,849.45 855.67,854.45 859.89,859.26 863.98,863.92 867.98,868.49 871.93,873 
		875.86,877.48 876.04,877.69 879.97,882.17 883.92,886.68 887.91,891.24 892,895.9 896.21,900.7 900.58,905.69 905.15,910.91 
		909.95,916.39 915.01,922.17 920.36,928.27 925.99,934.69 931.89,941.43 938.04,948.45 944.37,955.68 950.8,963.01 957.21,970.33 
		963.46,977.46 969.38,984.21 974.81,990.41 979.59,995.87 983.6,1000.45 986.78,1004.07 989.1,1006.72 990.63,1008.47 
		991.48,1009.43 991.82,1009.82 991.87,1009.89 	"/>
	
		<polyline clip-path="url(#SVGID_2_)" fill="none" stroke="#666666" stroke-width="3.63" stroke-linecap="round" stroke-linejoin="round" stroke-miterlimit="10" points="
		721.3,597.64 721.31,597.57 721.41,597.1 721.66,595.9 722.11,593.7 722.81,590.33 723.77,585.69 724.98,579.8 726.44,572.77 
		728.09,564.75 729.9,555.99 731.81,546.73 733.78,537.21 735.75,527.65 737.7,518.21 739.6,509.04 741.42,500.23 743.15,491.82 
		744.8,483.84 746.37,476.27 747.85,469.09 749.26,462.27 750.61,455.74 751.9,449.46 753.16,443.36 754.39,437.4 755.61,431.52 
		756.82,425.67 756.92,425.15 758.13,419.31 759.34,413.43 760.57,407.48 761.83,401.4 763.12,395.14 764.46,388.64 765.87,381.84 
		767.34,374.69 768.9,367.16 770.54,359.21 772.27,350.84 774.08,342.06 775.97,332.91 777.92,323.49 779.9,313.93 781.87,304.38 
		783.79,295.08 785.61,286.25 787.29,278.15 788.76,270.99 790,264.98 790.99,260.21 791.71,256.71 792.19,254.39 792.46,253.1 
		792.57,252.56 792.59,252.47 	"/>
	
		<polyline clip-path="url(#SVGID_2_)" fill="none" stroke="#666666" stroke-width="3.6" stroke-linecap="round" stroke-linejoin="round" stroke-miterlimit="10" points="
		755.33,612.99 755.37,612.94 755.66,612.56 756.39,611.58 757.73,609.8 759.79,607.06 762.62,603.29 766.21,598.49 770.52,592.75 
		775.44,586.21 780.82,579.04 786.53,571.44 792.4,563.61 798.32,555.73 804.16,547.95 809.86,540.37 815.33,533.07 820.57,526.1 
		825.54,519.48 830.25,513.19 834.73,507.24 838.98,501.57 843.05,496.15 846.96,490.95 850.74,485.9 854.44,480.98 858.09,476.12 
		861.7,471.31 862.84,469.79 866.45,464.98 870.08,460.15 873.76,455.25 877.51,450.25 881.38,445.1 885.39,439.75 889.58,434.17 
		893.99,428.3 898.63,422.13 903.52,415.61 908.67,408.75 914.08,401.55 919.71,394.04 925.52,386.31 931.42,378.44 937.33,370.57 
		943.11,362.87 948.62,355.53 953.71,348.76 958.23,342.73 962.08,337.61 965.16,333.5 967.47,330.42 969.04,328.34 969.95,327.12 
		970.37,326.57 970.46,326.44 970.47,326.44 	"/>
	
		<polyline clip-path="url(#SVGID_2_)" fill="none" stroke="#666666" stroke-width="3.6" stroke-linecap="round" stroke-linejoin="round" stroke-miterlimit="10" points="
		653.55,612.35 653.51,612.29 653.23,611.91 652.51,610.93 651.19,609.12 649.17,606.36 646.38,602.55 642.84,597.71 638.6,591.91 
		633.77,585.31 628.48,578.07 622.88,570.41 617.11,562.52 611.3,554.57 605.56,546.73 599.98,539.09 594.6,531.74 589.47,524.72 
		584.59,518.05 579.97,511.73 575.58,505.73 571.41,500.03 567.42,494.57 563.59,489.33 559.87,484.25 556.24,479.29 552.67,474.4 
		549.12,469.54 548.12,468.19 544.58,463.34 541.01,458.46 537.4,453.53 533.72,448.48 529.92,443.29 525.98,437.9 521.86,432.27 
		517.54,426.36 512.98,420.13 508.17,413.55 503.11,406.63 497.8,399.37 492.26,391.8 486.56,384 480.76,376.06 474.96,368.13 
		469.29,360.38 463.88,352.99 458.9,346.18 454.47,340.12 450.72,334.99 447.71,330.87 445.46,327.8 443.95,325.73 443.07,324.52 
		442.68,323.99 442.59,323.87 442.58,323.87 	"/>
	
		<polyline clip-path="url(#SVGID_2_)" fill="none" stroke="#666666" stroke-width="3.58" stroke-linecap="round" stroke-linejoin="round" stroke-miterlimit="10" points="
		783.09,648.9 783.15,648.87 783.59,648.69 784.72,648.23 786.78,647.39 789.95,646.09 794.3,644.3 799.85,642.02 806.48,639.3 
		814.06,636.19 822.36,632.79 831.16,629.18 840.22,625.46 849.35,621.71 858.38,618 867.17,614.4 875.64,610.92 883.73,607.6 
		891.41,604.45 898.7,601.46 905.62,598.62 912.2,595.92 918.48,593.34 924.53,590.86 930.38,588.46 936.09,586.12 941.72,583.81 
		947.3,581.52 949.32,580.69 954.89,578.4 960.49,576.1 966.17,573.77 971.96,571.4 977.93,568.95 984.12,566.41 990.59,563.75 
		997.38,560.97 1004.53,558.03 1012.08,554.93 1020.02,551.67 1028.36,548.25 1037.05,544.69 1046,541.01 1055.12,537.27 
		1064.24,533.53 1073.17,529.86 1081.689,526.37 1089.57,523.13 1096.58,520.26 1102.55,517.81 1107.36,515.83 1110.97,514.35 
		1113.43,513.34 1114.89,512.75 1115.55,512.47 1115.72,512.41 1115.72,512.4 	"/>
	
		<polyline clip-path="url(#SVGID_2_)" fill="none" stroke="#666666" stroke-width="3.57" stroke-linecap="round" stroke-linejoin="round" stroke-miterlimit="10" points="
		740.71,758.55 740.74,758.61 740.95,759.05 741.47,760.15 742.43,762.17 743.91,765.27 745.94,769.54 748.51,774.96 751.6,781.45 
		755.11,788.84 758.96,796.92 763.03,805.49 767.21,814.3 771.43,823.16 775.59,831.91 779.63,840.42 783.52,848.6 787.24,856.42 
		790.77,863.84 794.11,870.88 797.29,877.55 800.31,883.9 803.19,889.97 805.97,895.81 808.66,901.47 811.29,907 813.88,912.45 
		816.46,917.87 816.98,918.98 819.56,924.39 822.14,929.83 824.76,935.34 827.44,940.97 830.19,946.76 833.05,952.78 836.04,959.07 
		839.19,965.68 842.5,972.64 845.99,979.98 849.67,987.72 853.52,995.83 857.54,1004.29 861.68,1013 865.9,1021.86 870.1,1030.7 
		874.21,1039.34 878.11,1047.56 881.71,1055.13 884.9,1061.83 887.59,1067.5 889.74,1072.02 891.34,1075.38 892.41,1077.62 
		893.02,1078.91 893.29,1079.47 893.34,1079.58 893.34,1079.59 	"/>
	<polygon clip-path="url(#SVGID_2_)" fill="#666666" points="732.23,574.94 732.02,574.02 732.1,571.94 731.96,571.9 731.04,573.77 
		730.41,574.48 	"/>
	
		<polygon clip-path="url(#SVGID_2_)" fill="none" stroke="#666666" stroke-width="0.75" stroke-linecap="round" stroke-linejoin="round" stroke-miterlimit="10" points="
		732.23,574.94 732.02,574.02 732.1,571.94 731.96,571.9 731.04,573.77 730.41,574.48 	"/>
	<polygon clip-path="url(#SVGID_2_)" fill="#666666" points="592.67,659.61 591.76,659.88 589.68,659.93 589.66,660.08 
		591.58,660.87 592.33,661.45 	"/>
	
		<polygon clip-path="url(#SVGID_2_)" fill="none" stroke="#666666" stroke-width="0.75" stroke-linecap="round" stroke-linejoin="round" stroke-miterlimit="10" points="
		592.67,659.61 591.76,659.88 589.68,659.93 589.66,660.08 591.58,660.87 592.33,661.45 	"/>
	<polygon clip-path="url(#SVGID_2_)" fill="#666666" points="821.16,728.93 822.1,728.84 824.15,729.19 824.21,729.05 822.47,727.9 
		821.85,727.19 	"/>
	
		<polygon clip-path="url(#SVGID_2_)" fill="none" stroke="#666666" stroke-width="0.75" stroke-linecap="round" stroke-linejoin="round" stroke-miterlimit="10" points="
		821.16,728.93 822.1,728.84 824.15,729.19 824.21,729.05 822.47,727.9 821.85,727.19 	"/>
	<polygon clip-path="url(#SVGID_2_)" fill="#666666" points="638.44,797.13 638.41,798.08 637.79,800.07 637.92,800.14 
		639.29,798.57 640.08,798.04 	"/>
	
		<polygon clip-path="url(#SVGID_2_)" fill="none" stroke="#666666" stroke-width="0.75" stroke-linecap="round" stroke-linejoin="round" stroke-miterlimit="10" points="
		638.44,797.13 638.41,798.08 637.79,800.07 637.92,800.14 639.29,798.57 640.08,798.04 	"/>
	<polygon clip-path="url(#SVGID_2_)" fill="#666666" points="623.42,542.22 622.62,541.71 621.22,540.17 621.09,540.24 
		621.75,542.22 621.81,543.16 	"/>
	
		<polygon clip-path="url(#SVGID_2_)" fill="none" stroke="#666666" stroke-width="0.75" stroke-linecap="round" stroke-linejoin="round" stroke-miterlimit="10" points="
		623.42,542.22 622.62,541.71 621.22,540.17 621.09,540.24 621.75,542.22 621.81,543.16 	"/>
	<polygon clip-path="url(#SVGID_2_)" fill="#666666" points="841.27,605.68 841.79,604.89 843.36,603.52 843.29,603.39 
		841.3,604.01 840.36,604.04 	"/>
	
		<polygon clip-path="url(#SVGID_2_)" fill="none" stroke="#666666" stroke-width="0.75" stroke-linecap="round" stroke-linejoin="round" stroke-miterlimit="10" points="
		841.27,605.68 841.79,604.89 843.36,603.52 843.29,603.39 841.3,604.01 840.36,604.04 	"/>
	<polygon clip-path="url(#SVGID_2_)" fill="#666666" points="457.31,607.96 456.38,608.14 454.3,607.98 454.26,608.12 
		456.09,609.11 456.78,609.76 	"/>
	
		<polygon clip-path="url(#SVGID_2_)" fill="none" stroke="#666666" stroke-width="0.75" stroke-linecap="round" stroke-linejoin="round" stroke-miterlimit="10" points="
		457.31,607.96 456.38,608.14 454.3,607.98 454.26,608.12 456.09,609.11 456.78,609.76 	"/>
	<polygon clip-path="url(#SVGID_2_)" fill="#666666" points="777.19,822.76 777.96,823.31 779.29,824.91 779.42,824.84 
		778.86,822.84 778.85,821.89 	"/>
	
		<polygon clip-path="url(#SVGID_2_)" fill="none" stroke="#666666" stroke-width="0.75" stroke-linecap="round" stroke-linejoin="round" stroke-miterlimit="10" points="
		777.19,822.76 777.96,823.31 779.29,824.91 779.42,824.84 778.86,822.84 778.85,821.89 	"/>
	<polygon clip-path="url(#SVGID_2_)" fill="#666666" points="687.66,911.24 688.04,912.11 688.33,914.17 688.48,914.18 
		689.04,912.17 689.53,911.36 	"/>
	
		<polygon clip-path="url(#SVGID_2_)" fill="none" stroke="#666666" stroke-width="0.75" stroke-linecap="round" stroke-linejoin="round" stroke-miterlimit="10" points="
		687.66,911.24 688.04,912.11 688.33,914.17 688.48,914.18 689.04,912.17 689.53,911.36 	"/>
	<polygon clip-path="url(#SVGID_2_)" fill="#666666" points="958.79,718.27 959.68,717.96 961.76,717.82 961.78,717.67 
		959.82,716.96 959.05,716.42 	"/>
	
		<polygon clip-path="url(#SVGID_2_)" fill="none" stroke="#666666" stroke-width="0.75" stroke-linecap="round" stroke-linejoin="round" stroke-miterlimit="10" points="
		958.79,718.27 959.68,717.96 961.76,717.82 961.78,717.67 959.82,716.96 959.05,716.42 	"/>
	<polygon clip-path="url(#SVGID_2_)" fill="#666666" points="741.33,428.06 741.02,427.17 740.89,425.09 740.74,425.07 
		740.03,427.02 739.48,427.8 	"/>
	
		<polygon clip-path="url(#SVGID_2_)" fill="none" stroke="#666666" stroke-width="0.75" stroke-linecap="round" stroke-linejoin="round" stroke-miterlimit="10" points="
		741.33,428.06 741.02,427.17 740.89,425.09 740.74,425.07 740.03,427.02 739.48,427.8 	"/>
	<polygon clip-path="url(#SVGID_2_)" fill="#666666" points="980.23,614.65 980.95,614.03 982.82,613.13 982.79,612.99 
		980.71,613.05 979.78,612.83 	"/>
	
		<polygon clip-path="url(#SVGID_2_)" fill="none" stroke="#666666" stroke-width="0.75" stroke-linecap="round" stroke-linejoin="round" stroke-miterlimit="10" points="
		980.23,614.65 980.95,614.03 982.82,613.13 982.79,612.99 980.71,613.05 979.78,612.83 	"/>
	<polygon clip-path="url(#SVGID_2_)" fill="#666666" points="791.39,963.13 792.05,963.81 793.07,965.62 793.21,965.58 
		793.01,963.51 793.17,962.57 	"/>
	
		<polygon clip-path="url(#SVGID_2_)" fill="none" stroke="#666666" stroke-width="0.75" stroke-linecap="round" stroke-linejoin="round" stroke-miterlimit="10" points="
		791.39,963.13 792.05,963.81 793.07,965.62 793.21,965.58 793.01,963.51 793.17,962.57 	"/>
	<polygon clip-path="url(#SVGID_2_)" fill="#666666" points="522.96,771.66 522.4,772.42 520.78,773.73 520.84,773.85 
		522.85,773.32 523.8,773.33 	"/>
	
		<polygon clip-path="url(#SVGID_2_)" fill="none" stroke="#666666" stroke-width="0.75" stroke-linecap="round" stroke-linejoin="round" stroke-miterlimit="10" points="
		522.96,771.66 522.4,772.42 520.78,773.73 520.84,773.85 522.85,773.32 523.8,773.33 	"/>
	<polygon clip-path="url(#SVGID_2_)" fill="#666666" points="581.9,971.01 581.98,971.96 581.59,974 581.72,974.06 582.91,972.34 
		583.63,971.73 	"/>
	
		<polygon clip-path="url(#SVGID_2_)" fill="none" stroke="#666666" stroke-width="0.75" stroke-linecap="round" stroke-linejoin="round" stroke-miterlimit="10" points="
		581.9,971.01 581.98,971.96 581.59,974 581.72,974.06 582.91,972.34 583.63,971.73 	"/>
	<polygon clip-path="url(#SVGID_2_)" fill="#666666" points="954.19,506.27 954.63,505.43 956.05,503.9 955.97,503.79 954.05,504.6 
		953.11,504.74 	"/>
	
		<polygon clip-path="url(#SVGID_2_)" fill="none" stroke="#666666" stroke-width="0.75" stroke-linecap="round" stroke-linejoin="round" stroke-miterlimit="10" points="
		954.19,506.27 954.63,505.43 956.05,503.9 955.97,503.79 954.05,504.6 953.11,504.74 	"/>
	<polygon clip-path="url(#SVGID_2_)" fill="#666666" points="893.8,915.12 894.67,915.5 896.29,916.81 896.4,916.72 895.45,914.86 
		895.25,913.94 	"/>
	
		<polygon clip-path="url(#SVGID_2_)" fill="none" stroke="#666666" stroke-width="0.75" stroke-linecap="round" stroke-linejoin="round" stroke-miterlimit="10" points="
		893.8,915.12 894.67,915.5 896.29,916.81 896.4,916.72 895.45,914.86 895.25,913.94 	"/>
	<polygon clip-path="url(#SVGID_2_)" fill="#666666" points="471.94,505.11 471.01,504.94 469.12,504.06 469.04,504.18 
		470.4,505.75 470.82,506.6 	"/>
	
		<polygon clip-path="url(#SVGID_2_)" fill="none" stroke="#666666" stroke-width="0.75" stroke-linecap="round" stroke-linejoin="round" stroke-miterlimit="10" points="
		471.94,505.11 471.01,504.94 469.12,504.06 469.04,504.18 470.4,505.75 470.82,506.6 	"/>
	<polygon clip-path="url(#SVGID_2_)" fill="#666666" points="863.04,450.68 863.16,449.74 863.95,447.82 863.83,447.74 
		862.32,449.17 861.49,449.63 	"/>
	
		<polygon clip-path="url(#SVGID_2_)" fill="none" stroke="#666666" stroke-width="0.75" stroke-linecap="round" stroke-linejoin="round" stroke-miterlimit="10" points="
		863.04,450.68 863.16,449.74 863.95,447.82 863.83,447.74 862.32,449.17 861.49,449.63 	"/>
	<polygon clip-path="url(#SVGID_2_)" fill="#666666" points="542.1,420.22 541.29,419.73 539.84,418.23 539.72,418.31 
		540.43,420.26 540.51,421.21 	"/>
	
		<polygon clip-path="url(#SVGID_2_)" fill="none" stroke="#666666" stroke-width="0.75" stroke-linecap="round" stroke-linejoin="round" stroke-miterlimit="10" points="
		542.1,420.22 541.29,419.73 539.84,418.23 539.72,418.31 540.43,420.26 540.51,421.21 	"/>
	<polygon clip-path="url(#SVGID_2_)" fill="#666666" points="966.54,829.5 967.48,829.54 969.47,830.15 969.54,830.03 
		967.98,828.66 967.45,827.87 	"/>
	
		<polygon clip-path="url(#SVGID_2_)" fill="none" stroke="#666666" stroke-width="0.75" stroke-linecap="round" stroke-linejoin="round" stroke-miterlimit="10" points="
		966.54,829.5 967.48,829.54 969.47,830.15 969.54,830.03 967.98,828.66 967.45,827.87 	"/>
	<polygon clip-path="url(#SVGID_2_)" fill="#666666" points="496.88,910.03 496.64,910.95 495.59,912.75 495.7,912.85 
		497.38,911.62 498.27,911.28 	"/>
	
		<polygon clip-path="url(#SVGID_2_)" fill="none" stroke="#666666" stroke-width="0.75" stroke-linecap="round" stroke-linejoin="round" stroke-miterlimit="10" points="
		496.88,910.03 496.64,910.95 495.59,912.75 495.7,912.85 497.38,911.62 498.27,911.28 	"/>
	<polygon clip-path="url(#SVGID_2_)" fill="#666666" points="404.08,838.46 403.53,839.24 401.93,840.57 402,840.7 404,840.13 
		404.95,840.12 	"/>
	
		<polygon clip-path="url(#SVGID_2_)" fill="none" stroke="#666666" stroke-width="0.75" stroke-linecap="round" stroke-linejoin="round" stroke-miterlimit="10" points="
		404.08,838.46 403.53,839.24 401.93,840.57 402,840.7 404,840.13 404.95,840.12 	"/>
	<polygon clip-path="url(#SVGID_2_)" fill="#666666" points="307.36,812.14 306.69,812.82 304.9,813.87 304.94,814.01 
		307.01,813.77 307.95,813.92 	"/>
	
		<polygon clip-path="url(#SVGID_2_)" fill="none" stroke="#666666" stroke-width="0.75" stroke-linecap="round" stroke-linejoin="round" stroke-miterlimit="10" points="
		307.36,812.14 306.69,812.82 304.9,813.87 304.94,814.01 307.01,813.77 307.95,813.92 	"/>
	<polygon clip-path="url(#SVGID_2_)" fill="#666666" points="400.52,703.46 399.71,703.96 397.71,704.54 397.72,704.69 
		399.78,704.96 400.66,705.33 	"/>
	
		<polygon clip-path="url(#SVGID_2_)" fill="none" stroke="#666666" stroke-width="0.75" stroke-linecap="round" stroke-linejoin="round" stroke-miterlimit="10" points="
		400.52,703.46 399.71,703.96 397.71,704.54 397.72,704.69 399.78,704.96 400.66,705.33 	"/>
	<polygon clip-path="url(#SVGID_2_)" fill="#666666" points="856.44,335.83 856.38,334.88 856.8,332.84 856.67,332.79 
		855.46,334.48 854.72,335.08 	"/>
	
		<polygon clip-path="url(#SVGID_2_)" fill="none" stroke="#666666" stroke-width="0.75" stroke-linecap="round" stroke-linejoin="round" stroke-miterlimit="10" points="
		856.44,335.83 856.38,334.88 856.8,332.84 856.67,332.79 855.46,334.48 854.72,335.08 	"/>
	<polygon clip-path="url(#SVGID_2_)" fill="#666666" points="677.27,1067.85 677.65,1068.72 677.94,1070.78 678.09,1070.79 
		678.65,1068.79 679.14,1067.97 	"/>
	
		<polygon clip-path="url(#SVGID_2_)" fill="none" stroke="#666666" stroke-width="0.75" stroke-linecap="round" stroke-linejoin="round" stroke-miterlimit="10" points="
		677.27,1067.85 677.65,1068.72 677.94,1070.78 678.09,1070.79 678.65,1068.79 679.14,1067.97 	"/>
	<polygon clip-path="url(#SVGID_2_)" fill="#666666" points="367.58,942.39 367.18,943.25 365.84,944.84 365.93,944.95 
		367.8,944.04 368.73,943.86 	"/>
	
		<polygon clip-path="url(#SVGID_2_)" fill="none" stroke="#666666" stroke-width="0.75" stroke-linecap="round" stroke-linejoin="round" stroke-miterlimit="10" points="
		367.58,942.39 367.18,943.25 365.84,944.84 365.93,944.95 367.8,944.04 368.73,943.86 	"/>
	<polygon clip-path="url(#SVGID_2_)" fill="#666666" points="280.61,706.92 279.79,707.4 277.79,707.96 277.8,708.11 279.86,708.41 
		280.73,708.79 	"/>
	
		<polygon clip-path="url(#SVGID_2_)" fill="none" stroke="#666666" stroke-width="0.75" stroke-linecap="round" stroke-linejoin="round" stroke-miterlimit="10" points="
		280.61,706.92 279.79,707.4 277.79,707.96 277.8,708.11 279.86,708.41 280.73,708.79 	"/>
	<polygon clip-path="url(#SVGID_2_)" fill="#666666" points="643.76,365.94 643.17,365.19 642.36,363.27 642.22,363.3 
		642.18,365.38 641.92,366.29 	"/>
	
		<polygon clip-path="url(#SVGID_2_)" fill="none" stroke="#666666" stroke-width="0.75" stroke-linecap="round" stroke-linejoin="round" stroke-miterlimit="10" points="
		643.76,365.94 643.17,365.19 642.36,363.27 642.22,363.3 642.18,365.38 641.92,366.29 	"/>
	<polygon clip-path="url(#SVGID_2_)" fill="#666666" points="1117.25,623.83 1118.03,623.28 1119.98,622.57 1119.96,622.43 
		1117.88,622.28 1116.99,621.97 	"/>
	
		<polygon clip-path="url(#SVGID_2_)" fill="none" stroke="#666666" stroke-width="0.75" stroke-linecap="round" stroke-linejoin="round" stroke-miterlimit="10" points="
		1117.25,623.83 1118.03,623.28 1119.98,622.57 1119.96,622.43 1117.88,622.28 1116.99,621.97 	"/>
	<polygon clip-path="url(#SVGID_2_)" fill="#666666" points="1113.09,721.98 1113.97,721.63 1116.04,721.39 1116.061,721.25 
		1114.07,720.62 1113.27,720.11 	"/>
	
		<polygon clip-path="url(#SVGID_2_)" fill="none" stroke="#666666" stroke-width="0.75" stroke-linecap="round" stroke-linejoin="round" stroke-miterlimit="10" points="
		1113.09,721.98 1113.97,721.63 1116.04,721.39 1116.061,721.25 1114.07,720.62 1113.27,720.11 	"/>
	<polygon clip-path="url(#SVGID_2_)" fill="#666666" points="457.78,1029.04 457.65,1029.98 456.83,1031.89 456.95,1031.97 
		458.48,1030.56 459.31,1030.12 	"/>
	
		<polygon clip-path="url(#SVGID_2_)" fill="none" stroke="#666666" stroke-width="0.75" stroke-linecap="round" stroke-linejoin="round" stroke-miterlimit="10" points="
		457.78,1029.04 457.65,1029.98 456.83,1031.89 456.95,1031.97 458.48,1030.56 459.31,1030.12 	"/>
	<polygon clip-path="url(#SVGID_2_)" fill="#666666" points="775.35,1095.82 775.92,1096.57 776.69,1098.5 776.83,1098.48 
		776.91,1096.4 777.19,1095.49 	"/>
	
		<polygon clip-path="url(#SVGID_2_)" fill="none" stroke="#666666" stroke-width="0.75" stroke-linecap="round" stroke-linejoin="round" stroke-miterlimit="10" points="
		775.35,1095.82 775.92,1096.57 776.69,1098.5 776.83,1098.48 776.91,1096.4 777.19,1095.49 	"/>
	<polygon clip-path="url(#SVGID_2_)" fill="#666666" points="1056.83,918.95 1057.78,919.06 1059.71,919.84 1059.79,919.72 
		1058.34,918.22 1057.88,917.39 	"/>
	
		<polygon clip-path="url(#SVGID_2_)" fill="none" stroke="#666666" stroke-width="0.75" stroke-linecap="round" stroke-linejoin="round" stroke-miterlimit="10" points="
		1056.83,918.95 1057.78,919.06 1059.71,919.84 1059.79,919.72 1058.34,918.22 1057.88,917.39 	"/>
	<polygon clip-path="url(#SVGID_2_)" fill="#666666" points="321.85,507.9 320.9,507.95 318.87,507.51 318.81,507.64 320.49,508.87 
		321.08,509.61 	"/>
	
		<polygon clip-path="url(#SVGID_2_)" fill="none" stroke="#666666" stroke-width="0.75" stroke-linecap="round" stroke-linejoin="round" stroke-miterlimit="10" points="
		321.85,507.9 320.9,507.95 318.87,507.51 318.81,507.64 320.49,508.87 321.08,509.61 	"/>
	<polygon clip-path="url(#SVGID_2_)" fill="#666666" points="684.29,258.88 683.82,258.06 683.29,256.05 683.14,256.06 
		682.81,258.11 682.42,258.98 	"/>
	
		<polygon clip-path="url(#SVGID_2_)" fill="none" stroke="#666666" stroke-width="0.75" stroke-linecap="round" stroke-linejoin="round" stroke-miterlimit="10" points="
		684.29,258.88 683.82,258.06 683.29,256.05 683.14,256.06 682.81,258.11 682.42,258.98 	"/>
	<polygon clip-path="url(#SVGID_2_)" fill="#666666" points="372.36,414.03 371.43,413.83 369.57,412.9 369.48,413.01 370.8,414.62 
		371.18,415.49 	"/>
	
		<polygon clip-path="url(#SVGID_2_)" fill="none" stroke="#666666" stroke-width="0.75" stroke-linecap="round" stroke-linejoin="round" stroke-miterlimit="10" points="
		372.36,414.03 371.43,413.83 369.57,412.9 369.48,413.01 370.8,414.62 371.18,415.49 	"/>
	<polygon clip-path="url(#SVGID_2_)" fill="#666666" points="558.06,279.12 557.36,278.48 556.26,276.71 556.12,276.76 
		556.41,278.82 556.3,279.76 	"/>
	
		<polygon clip-path="url(#SVGID_2_)" fill="none" stroke="#666666" stroke-width="0.75" stroke-linecap="round" stroke-linejoin="round" stroke-miterlimit="10" points="
		558.06,279.12 557.36,278.48 556.26,276.71 556.12,276.76 556.41,278.82 556.3,279.76 	"/>
	<polygon clip-path="url(#SVGID_2_)" fill="#666666" points="284.85,601.12 283.94,601.39 281.86,601.44 281.83,601.58 
		283.75,602.38 284.5,602.96 	"/>
	
		<polygon clip-path="url(#SVGID_2_)" fill="none" stroke="#666666" stroke-width="0.75" stroke-linecap="round" stroke-linejoin="round" stroke-miterlimit="10" points="
		284.85,601.12 283.94,601.39 281.86,601.44 281.83,601.58 283.75,602.38 284.5,602.96 	"/>
	<polygon clip-path="url(#SVGID_2_)" fill="#666666" points="1113.66,822.66 1114.6,822.53 1116.67,822.78 1116.71,822.64 
		1114.93,821.58 1114.27,820.89 	"/>
	
		<polygon clip-path="url(#SVGID_2_)" fill="none" stroke="#666666" stroke-width="0.75" stroke-linecap="round" stroke-linejoin="round" stroke-miterlimit="10" points="
		1113.66,822.66 1114.6,822.53 1116.67,822.78 1116.71,822.64 1114.93,821.58 1114.27,820.89 	"/>
	<polygon clip-path="url(#SVGID_2_)" fill="#666666" points="1045.75,417.46 1046.15,416.6 1047.49,415.01 1047.4,414.9 
		1045.53,415.8 1044.6,415.98 	"/>
	
		<polygon clip-path="url(#SVGID_2_)" fill="none" stroke="#666666" stroke-width="0.75" stroke-linecap="round" stroke-linejoin="round" stroke-miterlimit="10" points="
		1045.75,417.46 1046.15,416.6 1047.49,415.01 1047.4,414.9 1045.53,415.8 1044.6,415.98 	"/>
	<polygon clip-path="url(#SVGID_2_)" fill="#666666" points="569.98,1099.31 570.13,1100.24 569.93,1102.32 570.07,1102.36 
		571.09,1100.55 571.76,1099.88 	"/>
	
		<polygon clip-path="url(#SVGID_2_)" fill="none" stroke="#666666" stroke-width="0.75" stroke-linecap="round" stroke-linejoin="round" stroke-miterlimit="10" points="
		569.98,1099.31 570.13,1100.24 569.93,1102.32 570.07,1102.36 571.09,1100.55 571.76,1099.88 	"/>
	<polygon clip-path="url(#SVGID_2_)" fill="#666666" points="989.27,1008.34 990.15,1008.69 991.82,1009.93 991.93,1009.84 
		990.91,1008.02 990.68,1007.1 	"/>
	
		<polygon clip-path="url(#SVGID_2_)" fill="none" stroke="#666666" stroke-width="0.75" stroke-linecap="round" stroke-linejoin="round" stroke-miterlimit="10" points="
		989.27,1008.34 990.15,1008.69 991.82,1009.93 991.93,1009.84 990.91,1008.02 990.68,1007.1 	"/>
	<polygon clip-path="url(#SVGID_2_)" fill="#666666" points="792.92,255.48 792.67,254.57 792.66,252.48 792.52,252.45 
		791.68,254.36 791.09,255.1 	"/>
	
		<polygon clip-path="url(#SVGID_2_)" fill="none" stroke="#666666" stroke-width="0.75" stroke-linecap="round" stroke-linejoin="round" stroke-miterlimit="10" points="
		792.92,255.48 792.67,254.57 792.66,252.48 792.52,252.45 791.68,254.36 791.09,255.1 	"/>
	<polygon clip-path="url(#SVGID_2_)" fill="#666666" points="969.49,329.3 969.65,328.37 970.52,326.48 970.41,326.39 
		968.84,327.76 967.99,328.18 	"/>
	
		<polygon clip-path="url(#SVGID_2_)" fill="none" stroke="#666666" stroke-width="0.75" stroke-linecap="round" stroke-linejoin="round" stroke-miterlimit="10" points="
		969.49,329.3 969.65,328.37 970.52,326.48 970.41,326.39 968.84,327.76 967.99,328.18 	"/>
	<polygon clip-path="url(#SVGID_2_)" fill="#666666" points="445.04,325.64 444.19,325.21 442.64,323.82 442.53,323.91 
		443.38,325.81 443.53,326.74 	"/>
	
		<polygon clip-path="url(#SVGID_2_)" fill="none" stroke="#666666" stroke-width="0.75" stroke-linecap="round" stroke-linejoin="round" stroke-miterlimit="10" points="
		445.04,325.64 444.19,325.21 442.64,323.82 442.53,323.91 443.38,325.81 443.53,326.74 	"/>
	<polygon clip-path="url(#SVGID_2_)" fill="#666666" points="1113.41,514.36 1114.03,513.64 1115.75,512.47 1115.689,512.34 
		1113.64,512.71 1112.7,512.63 	"/>
	
		<polygon clip-path="url(#SVGID_2_)" fill="none" stroke="#666666" stroke-width="0.75" stroke-linecap="round" stroke-linejoin="round" stroke-miterlimit="10" points="
		1113.41,514.36 1114.03,513.64 1115.75,512.47 1115.689,512.34 1113.64,512.71 1112.7,512.63 	"/>
	<polygon clip-path="url(#SVGID_2_)" fill="#666666" points="891.26,1077.39 892.01,1077.96 893.28,1079.62 893.41,1079.55 
		892.92,1077.53 892.95,1076.58 	"/>
	
		<polygon clip-path="url(#SVGID_2_)" fill="none" stroke="#666666" stroke-width="0.75" stroke-linecap="round" stroke-linejoin="round" stroke-miterlimit="10" points="
		891.26,1077.39 892.01,1077.96 893.28,1079.62 893.41,1079.55 892.92,1077.53 892.95,1076.58 	"/>
	<path clip-path="url(#SVGID_2_)" fill="#BD0026" d="M618.82,681.35c0-46.85,38.33-85.19,85.19-85.19
		c46.851,0,85.19,38.34,85.19,85.19c0,46.86-38.34,85.19-85.19,85.19C657.15,766.54,618.82,728.21,618.82,681.35"/>
	<path clip-path="url(#SVGID_2_)" fill="#BD0026" d="M672.35,495.03c0-43.66,35.72-79.38,79.38-79.38
		c43.649,0,79.369,35.72,79.369,79.38c0,43.65-35.72,79.37-79.369,79.37C708.07,574.4,672.35,538.68,672.35,495.03"/>
	<path clip-path="url(#SVGID_2_)" fill="#BD0026" d="M436.49,645.83c0-42.49,34.76-77.25,77.25-77.25
		c42.479,0,77.24,34.76,77.24,77.25c0,42.479-34.76,77.24-77.24,77.24C471.25,723.07,436.49,688.31,436.49,645.83"/>
	<path clip-path="url(#SVGID_2_)" fill="#BD0026" d="M818.81,757.18c0-41.779,34.181-75.96,75.96-75.96
		c41.771,0,75.95,34.181,75.95,75.96c0,41.771-34.18,75.96-75.95,75.96C852.99,833.14,818.81,798.95,818.81,757.18"/>
	<path clip-path="url(#SVGID_2_)" fill="#BD0026" d="M526.67,865.44c0-41.131,33.66-74.79,74.79-74.79
		c41.14,0,74.79,33.659,74.79,74.79c0,41.14-33.65,74.79-74.79,74.79C560.33,940.23,526.67,906.58,526.67,865.44"/>
	<path clip-path="url(#SVGID_2_)" fill="#BD0026" d="M509.57,476.32c0-40.74,33.34-74.08,74.08-74.08
		c40.75,0,74.08,33.34,74.08,74.08c0,40.74-33.33,74.08-74.08,74.08C542.91,550.4,509.57,517.06,509.57,476.32"/>
	<path clip-path="url(#SVGID_2_)" fill="#E31A1C" d="M834.11,568.07c0-39.87,32.62-72.49,72.489-72.49
		c39.87,0,72.5,32.62,72.5,72.49c0,39.88-32.63,72.5-72.5,72.5C866.73,640.57,834.11,607.95,834.11,568.07"/>
	<path clip-path="url(#SVGID_2_)" fill="#E31A1C" d="M312.34,587.65c0-39.84,32.6-72.43,72.44-72.43
		c39.84,0,72.43,32.59,72.43,72.43c0,39.84-32.59,72.44-72.43,72.44C344.94,660.09,312.34,627.49,312.34,587.65"/>
	<path clip-path="url(#SVGID_2_)" fill="#E31A1C" d="M740.61,888.98c0-39.82,32.58-72.4,72.399-72.4c39.82,0,72.4,32.58,72.4,72.4
		c0,39.819-32.58,72.399-72.4,72.399C773.19,961.38,740.61,928.8,740.61,888.98"/>
	<path clip-path="url(#SVGID_2_)" fill="#E31A1C" d="M611.22,986.36c0-39.79,32.561-72.351,72.35-72.351
		c39.791,0,72.34,32.561,72.34,72.351s-32.55,72.34-72.34,72.34C643.78,1058.7,611.22,1026.15,611.22,986.36"/>
	<path clip-path="url(#SVGID_2_)" fill="#E31A1C" d="M961.06,727.86c0-39.78,32.54-72.32,72.311-72.32
		c39.77,0,72.319,32.54,72.319,72.32c0,39.77-32.55,72.31-72.319,72.31C993.6,800.17,961.06,767.63,961.06,727.86"/>
	<path clip-path="url(#SVGID_2_)" fill="#E31A1C" d="M679.34,354.14c0-39.41,32.25-71.66,71.66-71.66
		c39.42,0,71.67,32.25,71.67,71.66c0,39.42-32.25,71.67-71.67,71.67C711.59,425.81,679.34,393.56,679.34,354.14"/>
	<path clip-path="url(#SVGID_2_)" fill="#FC4E2A" d="M980.78,596.25c0-38.86,31.79-70.66,70.649-70.66
		c38.86,0,70.65,31.8,70.65,70.66s-31.79,70.65-70.65,70.65C1012.57,666.9,980.78,635.11,980.78,596.25"/>
	<path clip-path="url(#SVGID_2_)" fill="#FC4E2A" d="M743.71,1032.9c0-38.79,31.74-70.53,70.53-70.53s70.529,31.74,70.529,70.53
		s-31.739,70.529-70.529,70.529S743.71,1071.69,743.71,1032.9"/>
	<path clip-path="url(#SVGID_2_)" fill="#FC4E2A" d="M387.84,805.44c0-38.641,31.61-70.25,70.25-70.25
		c38.64,0,70.25,31.609,70.25,70.25c0,38.64-31.61,70.25-70.25,70.25C419.45,875.69,387.84,844.08,387.84,805.44"/>
	<path clip-path="url(#SVGID_2_)" fill="#FC4E2A" d="M484.42,1038.77c0-38.59,31.58-70.17,70.17-70.17
		c38.6,0,70.17,31.58,70.17,70.17c0,38.591-31.57,70.171-70.17,70.171C516,1108.94,484.42,1077.36,484.42,1038.77"/>
	<path clip-path="url(#SVGID_2_)" fill="#FC4E2A" d="M943.36,463.92c0-38.13,31.199-69.32,69.319-69.32
		c38.131,0,69.33,31.19,69.33,69.32s-31.199,69.33-69.33,69.33C974.56,533.25,943.36,502.05,943.36,463.92"/>
	<path clip-path="url(#SVGID_2_)" fill="#FC4E2A" d="M870.99,970.22c0-37.97,31.069-69.029,69.04-69.029
		c37.97,0,69.029,31.06,69.029,69.029c0,37.971-31.06,69.04-69.029,69.04C902.06,1039.26,870.99,1008.19,870.99,970.22"/>
	<path clip-path="url(#SVGID_2_)" fill="#FD8D3C" d="M345.22,462.64c0-37.88,31-68.87,68.88-68.87s68.87,30.99,68.87,68.87
		c0,37.88-30.99,68.87-68.87,68.87S345.22,500.52,345.22,462.64"/>
	<path clip-path="url(#SVGID_2_)" fill="#FD8D3C" d="M834.08,391.25c0-37.67,30.83-68.49,68.5-68.49c37.68,0,68.5,30.82,68.5,68.49
		c0,37.68-30.82,68.5-68.5,68.5C864.91,459.75,834.08,428.93,834.08,391.25"/>
	<path clip-path="url(#SVGID_2_)" fill="#FD8D3C" d="M435.08,360.2c0-37.65,30.8-68.45,68.45-68.45c37.65,0,68.45,30.8,68.45,68.45
		c0,37.65-30.8,68.45-68.45,68.45C465.88,428.65,435.08,397.85,435.08,360.2"/>
	<path clip-path="url(#SVGID_2_)" fill="#FD8D3C" d="M960.8,863.45c0-37.54,30.71-68.26,68.261-68.26
		c37.539,0,68.25,30.72,68.25,68.26s-30.711,68.26-68.25,68.26C991.51,931.71,960.8,900.99,960.8,863.45"/>
	<path clip-path="url(#SVGID_2_)" fill="#FD8D3C" d="M382.38,963.23c0-37.32,30.54-67.86,67.86-67.86
		c37.33,0,67.87,30.54,67.87,67.86c0,37.329-30.54,67.859-67.87,67.859C412.92,1031.09,382.38,1000.56,382.38,963.23"/>
	<path clip-path="url(#SVGID_2_)" fill="#FEB24C" d="M274.49,872.19c0-37.21,30.44-67.65,67.64-67.65
		c37.21,0,67.65,30.44,67.65,67.65c0,37.199-30.44,67.64-67.65,67.64C304.93,939.83,274.49,909.39,274.49,872.19"/>
	<path clip-path="url(#SVGID_2_)" fill="#FEB24C" d="M173.1,835.26c0-37.2,30.44-67.63,67.64-67.63c37.19,0,67.63,30.43,67.63,67.63
		s-30.44,67.63-67.63,67.63C203.54,902.89,173.1,872.46,173.1,835.26"/>
	<path clip-path="url(#SVGID_2_)" fill="#FEB24C" d="M262.72,709.73c0-37.17,30.42-67.59,67.59-67.59c37.18,0,67.6,30.42,67.6,67.59
		c0,37.18-30.42,67.6-67.6,67.6C293.14,777.33,262.72,746.91,262.72,709.73"/>
	<path clip-path="url(#SVGID_2_)" fill="#FEB24C" d="M816.48,271.23c0-36.98,30.26-67.24,67.239-67.24
		c36.99,0,67.25,30.26,67.25,67.24s-30.26,67.24-67.25,67.24C846.74,338.47,816.48,308.21,816.48,271.23"/>
	<path clip-path="url(#SVGID_2_)" fill="#FEB24C" d="M606.63,1137.56c0-36.81,30.12-66.92,66.93-66.92s66.93,30.11,66.93,66.92
		c0,36.811-30.12,66.931-66.93,66.931S606.63,1174.37,606.63,1137.56"/>
	<path clip-path="url(#SVGID_2_)" fill="#FEB24C" d="M246.6,985.89c0-36.68,30.01-66.689,66.69-66.689s66.69,30.01,66.69,66.689
		c0,36.681-30.01,66.69-66.69,66.69S246.6,1022.57,246.6,985.89"/>
	<path clip-path="url(#SVGID_2_)" fill="#FED976" d="M145.26,712.18c0-36.479,29.85-66.33,66.33-66.33s66.33,29.85,66.33,66.33
		c0,36.48-29.85,66.33-66.33,66.33S145.26,748.66,145.26,712.18"/>
	<path clip-path="url(#SVGID_2_)" fill="#FED976" d="M563.51,298.33c0-36.4,29.78-66.18,66.18-66.18
		c36.39,0,66.17,29.78,66.17,66.18c0,36.39-29.78,66.17-66.17,66.17C593.29,364.5,563.51,334.72,563.51,298.33"/>
	<path clip-path="url(#SVGID_2_)" fill="#FED976" d="M1119.32,613.27c0-36.24,29.649-65.89,65.89-65.89s65.88,29.65,65.88,65.89
		c0,36.23-29.64,65.88-65.88,65.88S1119.32,649.5,1119.32,613.27"/>
	<path clip-path="url(#SVGID_2_)" fill="#FED976" d="M1115.74,727.68c0-36.22,29.64-65.85,65.859-65.85
		c36.221,0,65.851,29.63,65.851,65.85c0,36.221-29.63,65.851-65.851,65.851C1145.38,793.53,1115.74,763.9,1115.74,727.68"/>
	<path clip-path="url(#SVGID_2_)" fill="#FED976" d="M353.15,1085.73c0-36.2,29.62-65.82,65.82-65.82
		c36.2,0,65.82,29.62,65.82,65.82c0,36.199-29.62,65.819-65.82,65.819C382.77,1151.55,353.15,1121.93,353.15,1085.73"/>
	<path clip-path="url(#SVGID_2_)" fill="#FED976" d="M722.52,1163.02c0-36.029,29.471-65.5,65.5-65.5
		c36.021,0,65.5,29.471,65.5,65.5c0,36.03-29.479,65.5-65.5,65.5C751.99,1228.52,722.52,1199.05,722.52,1163.02"/>
	<path clip-path="url(#SVGID_2_)" fill="#FFEDA0" d="M1048.73,956.02c0-35.81,29.289-65.1,65.09-65.1c35.81,0,65.1,29.29,65.1,65.1
		c0,35.801-29.29,65.101-65.1,65.101C1078.02,1021.12,1048.73,991.82,1048.73,956.02"/>
	<path clip-path="url(#SVGID_2_)" fill="#FFEDA0" d="M194.41,480.8c0-35.8,29.29-65.09,65.1-65.09c35.8,0,65.09,29.29,65.09,65.09
		c0,35.8-29.29,65.1-65.09,65.1C223.7,545.9,194.41,516.6,194.41,480.8"/>
	<path clip-path="url(#SVGID_2_)" fill="#FFEDA0" d="M615.03,191.12c0-35.75,29.25-65.01,65.01-65.01
		c35.75,0,65.01,29.26,65.01,65.01c0,35.76-29.26,65.01-65.01,65.01C644.28,256.13,615.03,226.88,615.03,191.12"/>
	<path clip-path="url(#SVGID_2_)" fill="#FFEDA0" d="M253.98,372.33c0-35.7,29.21-64.91,64.92-64.91c35.7,0,64.91,29.21,64.91,64.91
		s-29.21,64.91-64.91,64.91C283.19,437.24,253.98,408.03,253.98,372.33"/>
	<path clip-path="url(#SVGID_2_)" fill="#FFEDA0" d="M469.07,215.82c0-35.67,29.19-64.86,64.86-64.86
		c35.67,0,64.86,29.19,64.86,64.86c0,35.67-29.19,64.86-64.86,64.86C498.26,280.68,469.07,251.49,469.07,215.82"/>
	<path clip-path="url(#SVGID_2_)" fill="#FFEDA0" d="M153.47,589.48c0-35.62,29.14-64.76,64.75-64.76
		c35.61,0,64.75,29.14,64.75,64.76c0,35.61-29.14,64.75-64.75,64.75C182.61,654.23,153.47,625.09,153.47,589.48"/>
	<path clip-path="url(#SVGID_2_)" fill="#FFEDA0" d="M1113.22,843.57c0-35.4,28.96-64.37,64.37-64.37
		c35.4,0,64.37,28.97,64.37,64.37c0,35.41-28.97,64.37-64.37,64.37C1142.18,907.94,1113.22,878.98,1113.22,843.57"/>
	<path clip-path="url(#SVGID_2_)" fill="#FFEDA0" d="M1033.939,375.51c0-35.4,28.971-64.37,64.371-64.37
		c35.399,0,64.359,28.97,64.359,64.37c0,35.4-28.96,64.36-64.359,64.36C1062.91,439.87,1033.939,410.91,1033.939,375.51"/>
	<path clip-path="url(#SVGID_2_)" fill="#FFEDA0" d="M486.19,1163.61c0-35.37,28.94-64.301,64.3-64.301
		c35.37,0,64.3,28.931,64.3,64.301c0,35.359-28.93,64.3-64.3,64.3C515.13,1227.91,486.19,1198.97,486.19,1163.61"/>
	<path clip-path="url(#SVGID_2_)" fill="#FFEDA0" d="M970.05,1058.02c0-35.199,28.8-64,64-64s64,28.801,64,64c0,35.2-28.8,64-64,64
		S970.05,1093.22,970.05,1058.02"/>
	<path clip-path="url(#SVGID_2_)" fill="#FFEDA0" d="M741.7,189.99c0-35.09,28.7-63.8,63.79-63.8s63.8,28.71,63.8,63.8
		c0,35.09-28.71,63.8-63.8,63.8S741.7,225.08,741.7,189.99"/>
	<path clip-path="url(#SVGID_2_)" fill="#FFEDA0" d="M945.11,275.7c0-34.9,28.55-63.45,63.449-63.45c34.9,0,63.45,28.55,63.45,63.45
		c0,34.89-28.55,63.44-63.45,63.44C973.66,339.14,945.11,310.59,945.11,275.7"/>
	<path clip-path="url(#SVGID_2_)" fill="#FFEDA0" d="M341.69,272.65c0-34.89,28.55-63.44,63.44-63.44
		c34.9,0,63.45,28.55,63.45,63.44c0,34.9-28.55,63.45-63.45,63.45C370.24,336.1,341.69,307.55,341.69,272.65"/>
	<path clip-path="url(#SVGID_2_)" fill="#FFEDA0" d="M1110.98,488.39c0-34.78,28.459-63.24,63.25-63.24
		c34.789,0,63.25,28.46,63.25,63.24c0,34.79-28.461,63.25-63.25,63.25C1139.439,551.64,1110.98,523.18,1110.98,488.39"/>
	<path clip-path="url(#SVGID_2_)" fill="#FFEDA0" d="M857.31,1136.61c0-34.73,28.41-63.141,63.141-63.141
		c34.729,0,63.14,28.41,63.14,63.141c0,34.729-28.41,63.14-63.14,63.14C885.72,1199.75,857.31,1171.34,857.31,1136.61"/>
</g>
<text transform="matrix(1 0 0 1 657 690.0703)"><tspan x="0" y="0" font-family="'Times-Bold'" font-size="26" letter-spacing="-1">A</tspan><tspan x="17.477" y="0" font-family="'Times-Bold'" font-size="26">URKA</tspan></text>
<text transform="matrix(1 0 0 1 695.0596 503.0898)"><tspan x="0" y="0" font-family="'Times-Bold'" font-size="24">R</tspan><tspan x="17.332" y="0" font-family="'Times-Bold'" font-size="24" letter-spacing="-1">A</tspan><tspan x="33.344" y="0" font-family="'Times-Bold'" font-size="24">CGAP1</tspan></text>
<text transform="matrix(1 0 0 1 476.04 653.5601)" font-family="'Times-Bold'" font-size="23">UBE2C</text>
<text transform="matrix(1 0 0 1 856.4404 764.9102)" font-family="'Times-Bold'" font-size="23">CCNB2</text>
<text transform="matrix(1 0 0 1 564.7998 872.8301)" font-family="'Times-Bold'" font-size="22">CCNB1</text>
<text transform="matrix(1 0 0 1 539.6499 483.71)" font-family="'Times-Bold'" font-size="22">DLGAP5</text>
<text transform="matrix(1 0 0 1 871.0195 575.1499)" font-family="'Times-Bold'" font-size="21">TRIP13</text>
<text transform="matrix(1 0 0 1 343.79 594.71)"><tspan x="0" y="0" font-family="'Times-Bold'" font-size="21">R</tspan><tspan x="14.326" y="0" font-family="'Times-Bold'" font-size="21">TFDC1</tspan></text>
<text transform="matrix(1 0 0 1 779.1699 896.04)" font-family="'Times-Bold'" font-size="21">PTTG1</text>
<text transform="matrix(1 0 0 1 656.7402 993.4102)" font-family="'Times-Bold'" font-size="21">PRC1</text>
<text transform="matrix(1 0 0 1 996.6201 734.96)" font-family="'Times-Bold'" font-size="21">KIF20A</text>
<text transform="matrix(1 0 0 1 717.2695 361.1699)"><tspan x="0" y="0" font-family="'Times-Bold'" font-size="21">B</tspan><tspan x="13.797" y="0" font-family="'Times-Bold'" font-size="21">UB1B</tspan></text>
<text transform="matrix(1 0 0 1 1027.5098 603.3398)" font-family="'Times-Bold'" font-size="21">E2F8</text>
<text transform="matrix(1 0 0 1 776.9199 1039.96)" font-family="'Times-Bold'" font-size="21">NCAPG</text>
<text transform="matrix(1 0 0 1 426 812.54)" font-family="'Times-Bold'" font-size="21">MELK</text>
<text transform="matrix(1 0 0 1 525.1401 1045.5)" font-family="'Times-Bold'" font-size="20">GINS1</text>
<text transform="matrix(1 0 0 1 981.0195 470.6401)" font-family="'Times-Bold'" font-size="20">CDC20</text>
<text transform="matrix(1 0 0 1 899.4805 977.1201)" font-family="'Times-Bold'" font-size="20">MAD2L1</text>
<text transform="matrix(1 0 0 1 385.2202 469.3599)" font-family="'Times-Bold'" font-size="20">CMC2</text>
<text transform="matrix(1 0 0 1 872.5801 398.1499)" font-family="'Times-Bold'" font-size="20">KIF4A</text>
<text transform="matrix(1 0 0 1 466.3101 366.9199)" font-family="'Times-Bold'" font-size="20">MRGBP</text>
<text transform="matrix(1 0 0 1 994.6201 870.1699)" font-family="'Times-Bold'" font-size="20">CDKN3</text>
<text transform="matrix(1 0 0 1 417.1099 969.9502)"><tspan x="0" y="0" font-family="'Times-Bold'" font-size="20">KP</tspan><tspan x="27.773" y="0" font-family="'Times-Bold'" font-size="20">N</tspan><tspan x="41.817" y="0" font-family="'Times-Bold'" font-size="20">A2</tspan></text>
<text transform="matrix(1 0 0 1 313.1001 878.5801)" font-family="'Times-Bold'" font-size="19">CSTF1</text>
<text transform="matrix(1 0 0 1 210.6602 841.6396)" font-family="'Times-Bold'" font-size="19">NDC80</text>
<text transform="matrix(1 0 0 1 301.8101 716.1201)" font-family="'Times-Bold'" font-size="19">CEP55</text>
<text transform="matrix(1 0 0 1 848.3701 277.7598)" font-family="'Times-Bold'" font-size="19">MLF1IP</text>
<text transform="matrix(1 0 0 1 646.1201 1144.0996)" font-family="'Times-Bold'" font-size="19">RRM2</text>
<text transform="matrix(1 0 0 1 280.5601 992.1396)" font-family="'Times-Bold'" font-size="19">ZWINT</text>
<text transform="matrix(1 0 0 1 179.9302 718.5703)" font-family="'Times-Bold'" font-size="19">PSMA7</text>
<text transform="matrix(1 0 0 1 605.9399 304.8599)" font-family="'Times-Bold'" font-size="19">DBF4</text>
<text transform="matrix(1 0 0 1 1161.46 619.7998)" font-family="'Times-Bold'" font-size="19">TPX2</text>
<text transform="matrix(1 0 0 1 1161.0098 734.0596)" font-family="'Times-Bold'" font-size="19">TDG</text>
<text transform="matrix(1 0 0 1 386.2402 1092.1396)" font-family="'Times-Bold'" font-size="19">KIF18B</text>
<text transform="matrix(1 0 0 1 750.0195 1169.5596)" font-family="'Times-Bold'" font-size="19">YTHDF1</text>
<text transform="matrix(1 0 0 1 1086.8203 962.0703)" font-family="'Times-Bold'" font-size="18">KIF2C</text>
<text transform="matrix(1 0 0 1 229.9902 486.8599)" font-family="'Times-Bold'" font-size="18">SS18L1</text>
<text transform="matrix(1 0 0 1 659.5303 197.1802)" font-family="'Times-Bold'" font-size="18">STIL</text>
<text transform="matrix(1 0 0 1 293.3999 378.3901)" font-family="'Times-Bold'" font-size="18">ASPM</text>
<text transform="matrix(1 0 0 1 506.5898 221.8701)"><tspan x="0" y="0" font-family="'Times-Bold'" font-size="18">S</tspan><tspan x="10.011" y="0" font-family="'Times-Bold'" font-size="18" letter-spacing="-1">P</tspan><tspan x="19.692" y="0" font-family="'Times-Bold'" font-size="18">A</tspan><tspan x="31.701" y="0" font-family="'Times-Bold'" font-size="18">G5</tspan></text>
<text transform="matrix(1 0 0 1 187.9102 595.52)"><tspan x="0" y="0" font-family="'Times-Bold'" font-size="18">CC</tspan><tspan x="25.998" y="0" font-family="'Times-Bold'" font-size="18">N</tspan><tspan x="38.637" y="0" font-family="'Times-Bold'" font-size="18">A2</tspan></text>
<text transform="matrix(1 0 0 1 1132.5996 849.71)" font-family="'Times-Bold'" font-size="18">RAD51AP1</text>
<text transform="matrix(1 0 0 1 1066.2598 381.54)"><tspan x="0" y="0" font-family="'Times-Bold'" font-size="18">A</tspan><tspan x="12.099" y="0" font-family="'Times-Bold'" font-size="18">URKB</tspan></text>
<text transform="matrix(1 0 0 1 531.9902 1169.6904)" font-family="'Times-Bold'" font-size="18">PBK</text>
<text transform="matrix(1 0 0 1 1009.0498 1064.21)" font-family="'Times-Bold'" font-size="18">KIF11</text>
<text transform="matrix(1 0 0 1 776.1504 196.04)"><tspan x="0" y="0" font-family="'Times-Bold'" font-size="18">T</tspan><tspan x="11.7" y="0" font-family="'Times-Bold'" font-size="18">OP2A</tspan></text>
<text transform="matrix(1 0 0 1 978.0703 281.7402)" font-family="'Times-Bold'" font-size="18">CDCA3</text>
<text transform="matrix(1 0 0 1 376.4399 278.7002)"><tspan x="0" y="0" font-family="'Times-Bold'" font-size="18" letter-spacing="-1">T</tspan><tspan x="10.404" y="0" font-family="'Times-Bold'" font-size="18">A</tspan><tspan x="22.413" y="0" font-family="'Times-Bold'" font-size="18">CC3</tspan></text>
<text transform="matrix(1 0 0 1 1149.7305 494.4199)" font-family="'Times-Bold'" font-size="18">VRK1</text>
<text transform="matrix(1 0 0 1 892.7695 1142.6602)"><tspan x="0" y="0" font-family="'Times-Bold'" font-size="18" letter-spacing="-1">F</tspan><tspan x="9.394" y="0" font-family="'Times-Bold'" font-size="18">ANCI</tspan></text>
</svg>
