<?xml version="1.0" encoding="utf-8"?>
<!-- Generator: Adobe Illustrator 15.0.2, SVG Export Plug-In . SVG Version: 6.00 Build 0)  -->
<!DOCTYPE svg PUBLIC "-//W3C//DTD SVG 1.1//EN" "http://www.w3.org/Graphics/SVG/1.1/DTD/svg11.dtd">
<svg version="1.1" id="Layer_1" xmlns="http://www.w3.org/2000/svg" xmlns:xlink="http://www.w3.org/1999/xlink" x="0px" y="0px"
	 width="864px" height="720px" viewBox="0 0 864 720" enable-background="new 0 0 864 720" xml:space="preserve">
<g>
	<defs>
		<rect id="SVGID_1_" width="864" height="720"/>
	</defs>
	<clipPath id="SVGID_2_">
		<use xlink:href="#SVGID_1_"  overflow="visible"/>
	</clipPath>
	<rect clip-path="url(#SVGID_2_)" fill="#FFFFFF" width="864" height="720"/>
	
		<rect clip-path="url(#SVGID_2_)" fill="none" stroke="#FFFFFF" stroke-width="1.06" stroke-linecap="round" stroke-linejoin="round" stroke-miterlimit="10" width="864" height="720"/>
</g>
<g>
	<defs>
		<rect id="SVGID_3_" x="58.09" y="38.83" width="691.55" height="630.96"/>
	</defs>
	<clipPath id="SVGID_4_">
		<use xlink:href="#SVGID_3_"  overflow="visible"/>
	</clipPath>
	<rect x="58.09" y="38.83" clip-path="url(#SVGID_4_)" fill="#FFFFFF" width="691.55" height="630.96"/>
	
		<line clip-path="url(#SVGID_4_)" fill="none" stroke="#FAFAFA" stroke-width="1.06" stroke-linejoin="round" stroke-miterlimit="10" x1="58.09" y1="602.7" x2="749.63" y2="602.7"/>
	
		<line clip-path="url(#SVGID_4_)" fill="none" stroke="#FAFAFA" stroke-width="1.06" stroke-linejoin="round" stroke-miterlimit="10" x1="58.09" y1="454.51" x2="749.63" y2="454.51"/>
	
		<line clip-path="url(#SVGID_4_)" fill="none" stroke="#FAFAFA" stroke-width="1.06" stroke-linejoin="round" stroke-miterlimit="10" x1="58.09" y1="306.33" x2="749.63" y2="306.33"/>
	
		<line clip-path="url(#SVGID_4_)" fill="none" stroke="#FAFAFA" stroke-width="1.06" stroke-linejoin="round" stroke-miterlimit="10" x1="58.09" y1="158.15" x2="749.63" y2="158.15"/>
	
		<line clip-path="url(#SVGID_4_)" fill="none" stroke="#E5E5E5" stroke-width="0.43" stroke-linejoin="round" stroke-miterlimit="10" x1="58.09" y1="528.61" x2="749.63" y2="528.61"/>
	
		<line clip-path="url(#SVGID_4_)" fill="none" stroke="#E5E5E5" stroke-width="0.43" stroke-linejoin="round" stroke-miterlimit="10" x1="58.09" y1="380.42" x2="749.63" y2="380.42"/>
	
		<line clip-path="url(#SVGID_4_)" fill="none" stroke="#E5E5E5" stroke-width="0.43" stroke-linejoin="round" stroke-miterlimit="10" x1="58.09" y1="232.24" x2="749.63" y2="232.24"/>
	
		<line clip-path="url(#SVGID_4_)" fill="none" stroke="#E5E5E5" stroke-width="0.43" stroke-linejoin="round" stroke-miterlimit="10" x1="58.09" y1="84.06" x2="749.63" y2="84.06"/>
	
		<line clip-path="url(#SVGID_4_)" fill="none" stroke="#E5E5E5" stroke-width="0.43" stroke-linejoin="round" stroke-miterlimit="10" x1="137.88" y1="669.79" x2="137.88" y2="38.83"/>
	
		<line clip-path="url(#SVGID_4_)" fill="none" stroke="#E5E5E5" stroke-width="0.43" stroke-linejoin="round" stroke-miterlimit="10" x1="270.87" y1="669.79" x2="270.87" y2="38.83"/>
	
		<line clip-path="url(#SVGID_4_)" fill="none" stroke="#E5E5E5" stroke-width="0.43" stroke-linejoin="round" stroke-miterlimit="10" x1="403.86" y1="669.79" x2="403.86" y2="38.83"/>
	
		<line clip-path="url(#SVGID_4_)" fill="none" stroke="#E5E5E5" stroke-width="0.43" stroke-linejoin="round" stroke-miterlimit="10" x1="536.85" y1="669.79" x2="536.85" y2="38.83"/>
	
		<line clip-path="url(#SVGID_4_)" fill="none" stroke="#E5E5E5" stroke-width="0.43" stroke-linejoin="round" stroke-miterlimit="10" x1="669.84" y1="669.79" x2="669.84" y2="38.83"/>
	<g clip-path="url(#SVGID_4_)">
		<text transform="matrix(1 0 0 1 135.5498 144.1499)" font-family="'MyriadPro-Regular'" font-size="5.89">●</text>
	</g>
	<g clip-path="url(#SVGID_4_)">
		<text transform="matrix(1 0 0 1 135.5498 166.0698)" font-family="'MyriadPro-Regular'" font-size="5.89">●</text>
	</g>
	<g clip-path="url(#SVGID_4_)">
		<text transform="matrix(1 0 0 1 135.5498 175.0303)" font-family="'MyriadPro-Regular'" font-size="5.89">●</text>
	</g>
	<g clip-path="url(#SVGID_4_)">
		<text transform="matrix(1 0 0 1 135.5498 166.0698)" font-family="'MyriadPro-Regular'" font-size="5.89">●</text>
	</g>
	<g clip-path="url(#SVGID_4_)">
		<text transform="matrix(1 0 0 1 135.5498 144.1499)" font-family="'MyriadPro-Regular'" font-size="5.89">●</text>
	</g>
	<g clip-path="url(#SVGID_4_)">
		<text transform="matrix(1 0 0 1 135.5498 178.5698)" font-family="'MyriadPro-Regular'" font-size="5.89">●</text>
	</g>
	
		<line clip-path="url(#SVGID_4_)" fill="none" stroke="#333333" stroke-width="1.06" stroke-linejoin="round" stroke-miterlimit="10" x1="137.88" y1="331.76" x2="137.88" y2="194.48"/>
	
		<line clip-path="url(#SVGID_4_)" fill="none" stroke="#333333" stroke-width="1.06" stroke-linejoin="round" stroke-miterlimit="10" x1="137.88" y1="429.19" x2="137.88" y2="551.91"/>
	<rect x="88.01" y="331.76" clip-path="url(#SVGID_4_)" fill="#D41700" width="99.74" height="97.431"/>
	
		<rect x="88.01" y="331.76" clip-path="url(#SVGID_4_)" fill="none" stroke="#333333" stroke-width="1.06" stroke-linecap="round" stroke-linejoin="round" stroke-miterlimit="10" width="99.74" height="97.431"/>
	
		<line clip-path="url(#SVGID_4_)" fill="none" stroke="#333333" stroke-width="2.13" stroke-linejoin="round" stroke-miterlimit="10" x1="88.01" y1="377.04" x2="187.75" y2="377.04"/>
	<g clip-path="url(#SVGID_4_)">
		<text transform="matrix(1 0 0 1 268.54 224.98)" font-family="'MyriadPro-Regular'" font-size="5.89">●</text>
	</g>
	<g clip-path="url(#SVGID_4_)">
		<text transform="matrix(1 0 0 1 268.54 217.7798)" font-family="'MyriadPro-Regular'" font-size="5.89">●</text>
	</g>
	<g clip-path="url(#SVGID_4_)">
		<text transform="matrix(1 0 0 1 268.54 593.3398)" font-family="'MyriadPro-Regular'" font-size="5.89">●</text>
	</g>
	<g clip-path="url(#SVGID_4_)">
		<text transform="matrix(1 0 0 1 268.54 229.3501)" font-family="'MyriadPro-Regular'" font-size="5.89">●</text>
	</g>
	<g clip-path="url(#SVGID_4_)">
		<text transform="matrix(1 0 0 1 268.54 172.9502)" font-family="'MyriadPro-Regular'" font-size="5.89">●</text>
	</g>
	
		<line clip-path="url(#SVGID_4_)" fill="none" stroke="#333333" stroke-width="1.06" stroke-linejoin="round" stroke-miterlimit="10" x1="270.87" y1="362.46" x2="270.87" y2="250.31"/>
	
		<line clip-path="url(#SVGID_4_)" fill="none" stroke="#333333" stroke-width="1.06" stroke-linejoin="round" stroke-miterlimit="10" x1="270.87" y1="440.38" x2="270.87" y2="550.48"/>
	<rect x="221" y="362.46" clip-path="url(#SVGID_4_)" fill="#717400" width="99.74" height="77.92"/>
	
		<rect x="221" y="362.46" clip-path="url(#SVGID_4_)" fill="none" stroke="#333333" stroke-width="1.06" stroke-linecap="round" stroke-linejoin="round" stroke-miterlimit="10" width="99.74" height="77.92"/>
	
		<line clip-path="url(#SVGID_4_)" fill="none" stroke="#333333" stroke-width="2.13" stroke-linejoin="round" stroke-miterlimit="10" x1="221" y1="397.01" x2="320.74" y2="397.01"/>
	<g clip-path="url(#SVGID_4_)">
		<text transform="matrix(1 0 0 1 401.5298 366.4697)" font-family="'MyriadPro-Regular'" font-size="5.89">●</text>
	</g>
	<g clip-path="url(#SVGID_4_)">
		<text transform="matrix(1 0 0 1 401.5298 354.8901)" font-family="'MyriadPro-Regular'" font-size="5.89">●</text>
	</g>
	<g clip-path="url(#SVGID_4_)">
		<text transform="matrix(1 0 0 1 401.5298 251.0801)" font-family="'MyriadPro-Regular'" font-size="5.89">●</text>
	</g>
	<g clip-path="url(#SVGID_4_)">
		<text transform="matrix(1 0 0 1 401.5298 319.3701)" font-family="'MyriadPro-Regular'" font-size="5.89">●</text>
	</g>
	<g clip-path="url(#SVGID_4_)">
		<text transform="matrix(1 0 0 1 401.5298 412.3096)" font-family="'MyriadPro-Regular'" font-size="5.89">●</text>
	</g>
	<g clip-path="url(#SVGID_4_)">
		<text transform="matrix(1 0 0 1 401.5298 409.4805)" font-family="'MyriadPro-Regular'" font-size="5.89">●</text>
	</g>
	<g clip-path="url(#SVGID_4_)">
		<text transform="matrix(1 0 0 1 401.5298 408.79)" font-family="'MyriadPro-Regular'" font-size="5.89">●</text>
	</g>
	<g clip-path="url(#SVGID_4_)">
		<text transform="matrix(1 0 0 1 401.5298 274.0898)" font-family="'MyriadPro-Regular'" font-size="5.89">●</text>
	</g>
	<g clip-path="url(#SVGID_4_)">
		<text transform="matrix(1 0 0 1 401.5298 342.46)" font-family="'MyriadPro-Regular'" font-size="5.89">●</text>
	</g>
	<g clip-path="url(#SVGID_4_)">
		<text transform="matrix(1 0 0 1 401.5298 406.4805)" font-family="'MyriadPro-Regular'" font-size="5.89">●</text>
	</g>
	<g clip-path="url(#SVGID_4_)">
		<text transform="matrix(1 0 0 1 401.5298 412.9297)" font-family="'MyriadPro-Regular'" font-size="5.89">●</text>
	</g>
	<g clip-path="url(#SVGID_4_)">
		<text transform="matrix(1 0 0 1 401.5298 630.6104)" font-family="'MyriadPro-Regular'" font-size="5.89">●</text>
	</g>
	<g clip-path="url(#SVGID_4_)">
		<text transform="matrix(1 0 0 1 401.5298 402.8896)" font-family="'MyriadPro-Regular'" font-size="5.89">●</text>
	</g>
	<g clip-path="url(#SVGID_4_)">
		<text transform="matrix(1 0 0 1 401.5298 297.6802)" font-family="'MyriadPro-Regular'" font-size="5.89">●</text>
	</g>
	<g clip-path="url(#SVGID_4_)">
		<text transform="matrix(1 0 0 1 401.5298 397.79)" font-family="'MyriadPro-Regular'" font-size="5.89">●</text>
	</g>
	<g clip-path="url(#SVGID_4_)">
		<text transform="matrix(1 0 0 1 401.5298 373.6104)" font-family="'MyriadPro-Regular'" font-size="5.89">●</text>
	</g>
	<g clip-path="url(#SVGID_4_)">
		<text transform="matrix(1 0 0 1 401.5298 406.9199)" font-family="'MyriadPro-Regular'" font-size="5.89">●</text>
	</g>
	<g clip-path="url(#SVGID_4_)">
		<text transform="matrix(1 0 0 1 401.5298 395.71)" font-family="'MyriadPro-Regular'" font-size="5.89">●</text>
	</g>
	<g clip-path="url(#SVGID_4_)">
		<text transform="matrix(1 0 0 1 401.5298 375.3496)" font-family="'MyriadPro-Regular'" font-size="5.89">●</text>
	</g>
	<g clip-path="url(#SVGID_4_)">
		<text transform="matrix(1 0 0 1 401.5298 403.6797)" font-family="'MyriadPro-Regular'" font-size="5.89">●</text>
	</g>
	<g clip-path="url(#SVGID_4_)">
		<text transform="matrix(1 0 0 1 401.5298 386.7998)" font-family="'MyriadPro-Regular'" font-size="5.89">●</text>
	</g>
	<g clip-path="url(#SVGID_4_)">
		<text transform="matrix(1 0 0 1 401.5298 410.25)" font-family="'MyriadPro-Regular'" font-size="5.89">●</text>
	</g>
	<g clip-path="url(#SVGID_4_)">
		<text transform="matrix(1 0 0 1 401.5298 397.29)" font-family="'MyriadPro-Regular'" font-size="5.89">●</text>
	</g>
	<g clip-path="url(#SVGID_4_)">
		<text transform="matrix(1 0 0 1 401.5298 202.98)" font-family="'MyriadPro-Regular'" font-size="5.89">●</text>
	</g>
	<g clip-path="url(#SVGID_4_)">
		<text transform="matrix(1 0 0 1 401.5298 367.29)" font-family="'MyriadPro-Regular'" font-size="5.89">●</text>
	</g>
	<g clip-path="url(#SVGID_4_)">
		<text transform="matrix(1 0 0 1 401.5298 409.5)" font-family="'MyriadPro-Regular'" font-size="5.89">●</text>
	</g>
	<g clip-path="url(#SVGID_4_)">
		<text transform="matrix(1 0 0 1 401.5298 403.9902)" font-family="'MyriadPro-Regular'" font-size="5.89">●</text>
	</g>
	<g clip-path="url(#SVGID_4_)">
		<text transform="matrix(1 0 0 1 401.5298 399.5303)" font-family="'MyriadPro-Regular'" font-size="5.89">●</text>
	</g>
	<g clip-path="url(#SVGID_4_)">
		<text transform="matrix(1 0 0 1 401.5298 319.6699)" font-family="'MyriadPro-Regular'" font-size="5.89">●</text>
	</g>
	<g clip-path="url(#SVGID_4_)">
		<text transform="matrix(1 0 0 1 401.5298 391.1699)" font-family="'MyriadPro-Regular'" font-size="5.89">●</text>
	</g>
	<g clip-path="url(#SVGID_4_)">
		<text transform="matrix(1 0 0 1 401.5298 381.6396)" font-family="'MyriadPro-Regular'" font-size="5.89">●</text>
	</g>
	<g clip-path="url(#SVGID_4_)">
		<text transform="matrix(1 0 0 1 401.5298 408.7197)" font-family="'MyriadPro-Regular'" font-size="5.89">●</text>
	</g>
	<g clip-path="url(#SVGID_4_)">
		<text transform="matrix(1 0 0 1 401.5298 368.6797)" font-family="'MyriadPro-Regular'" font-size="5.89">●</text>
	</g>
	<g clip-path="url(#SVGID_4_)">
		<text transform="matrix(1 0 0 1 401.5298 414.4199)" font-family="'MyriadPro-Regular'" font-size="5.89">●</text>
	</g>
	<g clip-path="url(#SVGID_4_)">
		<text transform="matrix(1 0 0 1 401.5298 379.9199)" font-family="'MyriadPro-Regular'" font-size="5.89">●</text>
	</g>
	<g clip-path="url(#SVGID_4_)">
		<text transform="matrix(1 0 0 1 401.5298 404.2803)" font-family="'MyriadPro-Regular'" font-size="5.89">●</text>
	</g>
	<g clip-path="url(#SVGID_4_)">
		<text transform="matrix(1 0 0 1 401.5298 396.9805)" font-family="'MyriadPro-Regular'" font-size="5.89">●</text>
	</g>
	<g clip-path="url(#SVGID_4_)">
		<text transform="matrix(1 0 0 1 401.5298 412.9697)" font-family="'MyriadPro-Regular'" font-size="5.89">●</text>
	</g>
	<g clip-path="url(#SVGID_4_)">
		<text transform="matrix(1 0 0 1 401.5298 380.5498)" font-family="'MyriadPro-Regular'" font-size="5.89">●</text>
	</g>
	<g clip-path="url(#SVGID_4_)">
		<text transform="matrix(1 0 0 1 401.5298 349.7798)" font-family="'MyriadPro-Regular'" font-size="5.89">●</text>
	</g>
	<g clip-path="url(#SVGID_4_)">
		<text transform="matrix(1 0 0 1 401.5298 413.6699)" font-family="'MyriadPro-Regular'" font-size="5.89">●</text>
	</g>
	<g clip-path="url(#SVGID_4_)">
		<text transform="matrix(1 0 0 1 401.5298 381.6396)" font-family="'MyriadPro-Regular'" font-size="5.89">●</text>
	</g>
	<g clip-path="url(#SVGID_4_)">
		<text transform="matrix(1 0 0 1 401.5298 319.6699)" font-family="'MyriadPro-Regular'" font-size="5.89">●</text>
	</g>
	<g clip-path="url(#SVGID_4_)">
		<text transform="matrix(1 0 0 1 401.5298 391.1699)" font-family="'MyriadPro-Regular'" font-size="5.89">●</text>
	</g>
	<g clip-path="url(#SVGID_4_)">
		<text transform="matrix(1 0 0 1 401.5298 399.4404)" font-family="'MyriadPro-Regular'" font-size="5.89">●</text>
	</g>
	<g clip-path="url(#SVGID_4_)">
		<text transform="matrix(1 0 0 1 401.5298 354.8901)" font-family="'MyriadPro-Regular'" font-size="5.89">●</text>
	</g>
	
		<line clip-path="url(#SVGID_4_)" fill="none" stroke="#333333" stroke-width="1.06" stroke-linejoin="round" stroke-miterlimit="10" x1="403.86" y1="491.04" x2="403.86" y2="414.98"/>
	
		<line clip-path="url(#SVGID_4_)" fill="none" stroke="#333333" stroke-width="1.06" stroke-linejoin="round" stroke-miterlimit="10" x1="403.86" y1="542.43" x2="403.86" y2="616.71"/>
	<rect x="353.99" y="491.04" clip-path="url(#SVGID_4_)" fill="#009532" width="99.74" height="51.39"/>
	
		<rect x="353.99" y="491.04" clip-path="url(#SVGID_4_)" fill="none" stroke="#333333" stroke-width="1.06" stroke-linecap="round" stroke-linejoin="round" stroke-miterlimit="10" width="99.74" height="51.39"/>
	
		<line clip-path="url(#SVGID_4_)" fill="none" stroke="#333333" stroke-width="2.13" stroke-linejoin="round" stroke-miterlimit="10" x1="353.99" y1="519.79" x2="453.73" y2="519.79"/>
	<g clip-path="url(#SVGID_4_)">
		<text transform="matrix(1 0 0 1 534.5195 226.0298)" font-family="'MyriadPro-Regular'" font-size="5.89">●</text>
	</g>
	<g clip-path="url(#SVGID_4_)">
		<text transform="matrix(1 0 0 1 534.5195 241.5498)" font-family="'MyriadPro-Regular'" font-size="5.89">●</text>
	</g>
	<g clip-path="url(#SVGID_4_)">
		<text transform="matrix(1 0 0 1 534.5195 181.9502)" font-family="'MyriadPro-Regular'" font-size="5.89">●</text>
	</g>
	<g clip-path="url(#SVGID_4_)">
		<text transform="matrix(1 0 0 1 534.5195 198.6602)" font-family="'MyriadPro-Regular'" font-size="5.89">●</text>
	</g>
	<g clip-path="url(#SVGID_4_)">
		<text transform="matrix(1 0 0 1 534.5195 177.1299)" font-family="'MyriadPro-Regular'" font-size="5.89">●</text>
	</g>
	<g clip-path="url(#SVGID_4_)">
		<text transform="matrix(1 0 0 1 534.5195 178.6602)" font-family="'MyriadPro-Regular'" font-size="5.89">●</text>
	</g>
	<g clip-path="url(#SVGID_4_)">
		<text transform="matrix(1 0 0 1 534.5195 240.5098)" font-family="'MyriadPro-Regular'" font-size="5.89">●</text>
	</g>
	<g clip-path="url(#SVGID_4_)">
		<text transform="matrix(1 0 0 1 534.5195 157.8799)" font-family="'MyriadPro-Regular'" font-size="5.89">●</text>
	</g>
	<g clip-path="url(#SVGID_4_)">
		<text transform="matrix(1 0 0 1 534.5195 244.8901)" font-family="'MyriadPro-Regular'" font-size="5.89">●</text>
	</g>
	<g clip-path="url(#SVGID_4_)">
		<text transform="matrix(1 0 0 1 534.5195 174.9199)" font-family="'MyriadPro-Regular'" font-size="5.89">●</text>
	</g>
	<g clip-path="url(#SVGID_4_)">
		<text transform="matrix(1 0 0 1 534.5195 214.2998)" font-family="'MyriadPro-Regular'" font-size="5.89">●</text>
	</g>
	<g clip-path="url(#SVGID_4_)">
		<text transform="matrix(1 0 0 1 534.5195 601.6396)" font-family="'MyriadPro-Regular'" font-size="5.89">●</text>
	</g>
	<g clip-path="url(#SVGID_4_)">
		<text transform="matrix(1 0 0 1 534.5195 178.2998)" font-family="'MyriadPro-Regular'" font-size="5.89">●</text>
	</g>
	<g clip-path="url(#SVGID_4_)">
		<text transform="matrix(1 0 0 1 534.5195 69.5601)" font-family="'MyriadPro-Regular'" font-size="5.89">●</text>
	</g>
	<g clip-path="url(#SVGID_4_)">
		<text transform="matrix(1 0 0 1 534.5195 186.3701)" font-family="'MyriadPro-Regular'" font-size="5.89">●</text>
	</g>
	<g clip-path="url(#SVGID_4_)">
		<text transform="matrix(1 0 0 1 534.5195 238.8599)" font-family="'MyriadPro-Regular'" font-size="5.89">●</text>
	</g>
	<g clip-path="url(#SVGID_4_)">
		<text transform="matrix(1 0 0 1 534.5195 222.2798)" font-family="'MyriadPro-Regular'" font-size="5.89">●</text>
	</g>
	<g clip-path="url(#SVGID_4_)">
		<text transform="matrix(1 0 0 1 534.5195 230.3398)" font-family="'MyriadPro-Regular'" font-size="5.89">●</text>
	</g>
	<g clip-path="url(#SVGID_4_)">
		<text transform="matrix(1 0 0 1 534.5195 159.21)" font-family="'MyriadPro-Regular'" font-size="5.89">●</text>
	</g>
	<g clip-path="url(#SVGID_4_)">
		<text transform="matrix(1 0 0 1 534.5195 238.8301)" font-family="'MyriadPro-Regular'" font-size="5.89">●</text>
	</g>
	<g clip-path="url(#SVGID_4_)">
		<text transform="matrix(1 0 0 1 534.5195 228.23)" font-family="'MyriadPro-Regular'" font-size="5.89">●</text>
	</g>
	<g clip-path="url(#SVGID_4_)">
		<text transform="matrix(1 0 0 1 534.5195 218.5498)" font-family="'MyriadPro-Regular'" font-size="5.89">●</text>
	</g>
	<g clip-path="url(#SVGID_4_)">
		<text transform="matrix(1 0 0 1 534.5195 110.5698)" font-family="'MyriadPro-Regular'" font-size="5.89">●</text>
	</g>
	<g clip-path="url(#SVGID_4_)">
		<text transform="matrix(1 0 0 1 534.5195 178.2998)" font-family="'MyriadPro-Regular'" font-size="5.89">●</text>
	</g>
	<g clip-path="url(#SVGID_4_)">
		<text transform="matrix(1 0 0 1 534.5195 186.3701)" font-family="'MyriadPro-Regular'" font-size="5.89">●</text>
	</g>
	<g clip-path="url(#SVGID_4_)">
		<text transform="matrix(1 0 0 1 534.5195 189.9302)" font-family="'MyriadPro-Regular'" font-size="5.89">●</text>
	</g>
	<g clip-path="url(#SVGID_4_)">
		<text transform="matrix(1 0 0 1 534.5195 222.2798)" font-family="'MyriadPro-Regular'" font-size="5.89">●</text>
	</g>
	<g clip-path="url(#SVGID_4_)">
		<text transform="matrix(1 0 0 1 534.5195 69.5601)" font-family="'MyriadPro-Regular'" font-size="5.89">●</text>
	</g>
	<g clip-path="url(#SVGID_4_)">
		<text transform="matrix(1 0 0 1 534.5195 121.5498)" font-family="'MyriadPro-Regular'" font-size="5.89">●</text>
	</g>
	<g clip-path="url(#SVGID_4_)">
		<text transform="matrix(1 0 0 1 534.5195 226.0298)" font-family="'MyriadPro-Regular'" font-size="5.89">●</text>
	</g>
	
		<line clip-path="url(#SVGID_4_)" fill="none" stroke="#333333" stroke-width="1.06" stroke-linejoin="round" stroke-miterlimit="10" x1="536.85" y1="374.38" x2="536.85" y2="243.98"/>
	
		<line clip-path="url(#SVGID_4_)" fill="none" stroke="#333333" stroke-width="1.06" stroke-linejoin="round" stroke-miterlimit="10" x1="536.85" y1="461.93" x2="536.85" y2="578.92"/>
	<rect x="486.98" y="374.38" clip-path="url(#SVGID_4_)" fill="#008DF4" width="99.739" height="87.55"/>
	
		<rect x="486.98" y="374.38" clip-path="url(#SVGID_4_)" fill="none" stroke="#333333" stroke-width="1.06" stroke-linecap="round" stroke-linejoin="round" stroke-miterlimit="10" width="99.739" height="87.55"/>
	
		<line clip-path="url(#SVGID_4_)" fill="none" stroke="#333333" stroke-width="2.13" stroke-linejoin="round" stroke-miterlimit="10" x1="486.98" y1="422.29" x2="586.72" y2="422.29"/>
	<g clip-path="url(#SVGID_4_)">
		<text transform="matrix(1 0 0 1 667.5098 370.4102)" font-family="'MyriadPro-Regular'" font-size="5.89">●</text>
	</g>
	<g clip-path="url(#SVGID_4_)">
		<text transform="matrix(1 0 0 1 667.5098 371.5195)" font-family="'MyriadPro-Regular'" font-size="5.89">●</text>
	</g>
	<g clip-path="url(#SVGID_4_)">
		<text transform="matrix(1 0 0 1 667.5098 377.0303)" font-family="'MyriadPro-Regular'" font-size="5.89">●</text>
	</g>
	
		<line clip-path="url(#SVGID_4_)" fill="none" stroke="#333333" stroke-width="1.06" stroke-linejoin="round" stroke-miterlimit="10" x1="669.84" y1="512.53" x2="669.84" y2="395.78"/>
	
		<line clip-path="url(#SVGID_4_)" fill="none" stroke="#333333" stroke-width="1.06" stroke-linejoin="round" stroke-miterlimit="10" x1="669.84" y1="599.31" x2="669.84" y2="641.11"/>
	<rect x="619.97" y="512.53" clip-path="url(#SVGID_4_)" fill="#E300F3" width="99.74" height="86.779"/>
	
		<rect x="619.97" y="512.53" clip-path="url(#SVGID_4_)" fill="none" stroke="#333333" stroke-width="1.06" stroke-linecap="round" stroke-linejoin="round" stroke-miterlimit="10" width="99.74" height="86.779"/>
	
		<line clip-path="url(#SVGID_4_)" fill="none" stroke="#333333" stroke-width="2.13" stroke-linejoin="round" stroke-miterlimit="10" x1="619.97" y1="553.44" x2="719.71" y2="553.44"/>
	
		<rect x="58.09" y="38.83" clip-path="url(#SVGID_4_)" fill="none" stroke="#7F7F7F" stroke-width="1.06" stroke-linecap="round" stroke-linejoin="round" stroke-miterlimit="10" width="691.55" height="630.96"/>
</g>
<text transform="matrix(1 0 0 1 39.8799 535.79)" font-family="'Helvetica'" font-size="20">6</text>
<text transform="matrix(1 0 0 1 39.8799 387.5996)" font-family="'Helvetica'" font-size="20">8</text>
<text transform="matrix(1 0 0 1 28.7598 239.4199)" font-family="'Helvetica'" font-size="20">10</text>
<text transform="matrix(1 0 0 1 28.7598 91.2402)" font-family="'Helvetica'" font-size="20">12</text>
<line fill="none" stroke="#000000" stroke-width="1.06" stroke-linejoin="round" stroke-miterlimit="10" x1="53.83" y1="528.61" x2="58.09" y2="528.61"/>
<line fill="none" stroke="#000000" stroke-width="1.06" stroke-linejoin="round" stroke-miterlimit="10" x1="53.83" y1="380.42" x2="58.09" y2="380.42"/>
<line fill="none" stroke="#000000" stroke-width="1.06" stroke-linejoin="round" stroke-miterlimit="10" x1="53.83" y1="232.24" x2="58.09" y2="232.24"/>
<line fill="none" stroke="#000000" stroke-width="1.06" stroke-linejoin="round" stroke-miterlimit="10" x1="53.83" y1="84.06" x2="58.09" y2="84.06"/>
<line fill="none" stroke="#000000" stroke-width="1.06" stroke-linejoin="round" stroke-miterlimit="10" x1="137.88" y1="674.05" x2="137.88" y2="669.79"/>
<line fill="none" stroke="#000000" stroke-width="1.06" stroke-linejoin="round" stroke-miterlimit="10" x1="270.87" y1="674.05" x2="270.87" y2="669.79"/>
<line fill="none" stroke="#000000" stroke-width="1.06" stroke-linejoin="round" stroke-miterlimit="10" x1="403.86" y1="674.05" x2="403.86" y2="669.79"/>
<line fill="none" stroke="#000000" stroke-width="1.06" stroke-linejoin="round" stroke-miterlimit="10" x1="536.85" y1="674.05" x2="536.85" y2="669.79"/>
<line fill="none" stroke="#000000" stroke-width="1.06" stroke-linejoin="round" stroke-miterlimit="10" x1="669.84" y1="674.05" x2="669.84" y2="669.79"/>
<text transform="matrix(1 0 0 1 112.8701 691.2402)" font-family="'Helvetica'" font-size="20">Basal</text>
<text transform="matrix(1 0 0 1 249.2002 691.2402)" font-family="'Helvetica'" font-size="20">Her2</text>
<text transform="matrix(1 0 0 1 377.7402 691.2402)" font-family="'Helvetica'" font-size="20">LumA</text>
<text transform="matrix(1 0 0 1 510.7305 691.2402)" font-family="'Helvetica'" font-size="20">LumB</text>
<text transform="matrix(1 0 0 1 637.3701 691.2402)"><tspan x="0" y="0" font-family="'Helvetica'" font-size="20">No</tspan><tspan x="25.566" y="0" font-family="'Helvetica'" font-size="20">r</tspan><tspan x="32.707" y="0" font-family="'Helvetica'" font-size="20">mal</tspan></text>
<text transform="matrix(-6.123234e-17 -1 1 -6.123234e-17 25.1592 434.8896)" font-family="'Helvetica-Bold'" font-size="20">Log2 Expression</text>
<rect x="759.67" y="304.7" fill="#FFFFFF" width="79.9" height="99.22"/>
<rect x="763.92" y="313.27" fill="#FFFFFF" width="17.28" height="17.28"/>
<rect x="763.92" y="313.27" fill="none" stroke="#CCCCCC" stroke-width="1.06" stroke-linecap="round" stroke-linejoin="round" stroke-miterlimit="10" width="17.28" height="17.28"/>
<line fill="none" stroke="#333333" stroke-width="1.06" stroke-linecap="round" stroke-linejoin="round" stroke-miterlimit="10" x1="772.56" y1="328.82" x2="772.56" y2="326.23"/>
<line fill="none" stroke="#333333" stroke-width="1.06" stroke-linecap="round" stroke-linejoin="round" stroke-miterlimit="10" x1="772.56" y1="317.59" x2="772.56" y2="315"/>
<rect x="766.08" y="317.59" fill="#D41700" width="12.96" height="8.64"/>
<rect x="766.08" y="317.59" fill="none" stroke="#333333" stroke-width="1.06" stroke-linecap="round" stroke-linejoin="round" stroke-miterlimit="10" width="12.96" height="8.64"/>
<line fill="none" stroke="#333333" stroke-width="1.06" stroke-linecap="round" stroke-linejoin="round" stroke-miterlimit="10" x1="766.08" y1="321.91" x2="779.04" y2="321.91"/>
<rect x="763.92" y="330.55" fill="#FFFFFF" width="17.28" height="17.28"/>
<rect x="763.92" y="330.55" fill="none" stroke="#CCCCCC" stroke-width="1.06" stroke-linecap="round" stroke-linejoin="round" stroke-miterlimit="10" width="17.28" height="17.28"/>
<line fill="none" stroke="#333333" stroke-width="1.06" stroke-linecap="round" stroke-linejoin="round" stroke-miterlimit="10" x1="772.56" y1="346.1" x2="772.56" y2="343.51"/>
<line fill="none" stroke="#333333" stroke-width="1.06" stroke-linecap="round" stroke-linejoin="round" stroke-miterlimit="10" x1="772.56" y1="334.87" x2="772.56" y2="332.28"/>
<rect x="766.08" y="334.87" fill="#717400" width="12.96" height="8.64"/>
<rect x="766.08" y="334.87" fill="none" stroke="#333333" stroke-width="1.06" stroke-linecap="round" stroke-linejoin="round" stroke-miterlimit="10" width="12.96" height="8.64"/>
<line fill="none" stroke="#333333" stroke-width="1.06" stroke-linecap="round" stroke-linejoin="round" stroke-miterlimit="10" x1="766.08" y1="339.19" x2="779.04" y2="339.19"/>
<rect x="763.92" y="347.83" fill="#FFFFFF" width="17.28" height="17.28"/>
<rect x="763.92" y="347.83" fill="none" stroke="#CCCCCC" stroke-width="1.06" stroke-linecap="round" stroke-linejoin="round" stroke-miterlimit="10" width="17.28" height="17.28"/>
<line fill="none" stroke="#333333" stroke-width="1.06" stroke-linecap="round" stroke-linejoin="round" stroke-miterlimit="10" x1="772.56" y1="363.38" x2="772.56" y2="360.79"/>
<line fill="none" stroke="#333333" stroke-width="1.06" stroke-linecap="round" stroke-linejoin="round" stroke-miterlimit="10" x1="772.56" y1="352.15" x2="772.56" y2="349.56"/>
<rect x="766.08" y="352.15" fill="#009532" width="12.96" height="8.64"/>
<rect x="766.08" y="352.15" fill="none" stroke="#333333" stroke-width="1.06" stroke-linecap="round" stroke-linejoin="round" stroke-miterlimit="10" width="12.96" height="8.64"/>
<line fill="none" stroke="#333333" stroke-width="1.06" stroke-linecap="round" stroke-linejoin="round" stroke-miterlimit="10" x1="766.08" y1="356.47" x2="779.04" y2="356.47"/>
<rect x="763.92" y="365.11" fill="#FFFFFF" width="17.28" height="17.279"/>
<rect x="763.92" y="365.11" fill="none" stroke="#CCCCCC" stroke-width="1.06" stroke-linecap="round" stroke-linejoin="round" stroke-miterlimit="10" width="17.28" height="17.279"/>
<line fill="none" stroke="#333333" stroke-width="1.06" stroke-linecap="round" stroke-linejoin="round" stroke-miterlimit="10" x1="772.56" y1="380.66" x2="772.56" y2="378.07"/>
<line fill="none" stroke="#333333" stroke-width="1.06" stroke-linecap="round" stroke-linejoin="round" stroke-miterlimit="10" x1="772.56" y1="369.43" x2="772.56" y2="366.84"/>
<rect x="766.08" y="369.43" fill="#008DF4" width="12.96" height="8.641"/>
<rect x="766.08" y="369.43" fill="none" stroke="#333333" stroke-width="1.06" stroke-linecap="round" stroke-linejoin="round" stroke-miterlimit="10" width="12.96" height="8.641"/>
<line fill="none" stroke="#333333" stroke-width="1.06" stroke-linecap="round" stroke-linejoin="round" stroke-miterlimit="10" x1="766.08" y1="373.75" x2="779.04" y2="373.75"/>
<rect x="763.92" y="382.39" fill="#FFFFFF" width="17.28" height="17.28"/>
<rect x="763.92" y="382.39" fill="none" stroke="#CCCCCC" stroke-width="1.06" stroke-linecap="round" stroke-linejoin="round" stroke-miterlimit="10" width="17.28" height="17.28"/>
<line fill="none" stroke="#333333" stroke-width="1.06" stroke-linecap="round" stroke-linejoin="round" stroke-miterlimit="10" x1="772.56" y1="397.94" x2="772.56" y2="395.35"/>
<line fill="none" stroke="#333333" stroke-width="1.06" stroke-linecap="round" stroke-linejoin="round" stroke-miterlimit="10" x1="772.56" y1="386.71" x2="772.56" y2="384.12"/>
<rect x="766.08" y="386.71" fill="#E300F3" width="12.96" height="8.64"/>
<rect x="766.08" y="386.71" fill="none" stroke="#333333" stroke-width="1.06" stroke-linecap="round" stroke-linejoin="round" stroke-miterlimit="10" width="12.96" height="8.64"/>
<line fill="none" stroke="#333333" stroke-width="1.06" stroke-linecap="round" stroke-linejoin="round" stroke-miterlimit="10" x1="766.08" y1="391.03" x2="779.04" y2="391.03"/>
<text transform="matrix(1 0 0 1 783.3604 327.6602)" font-family="'Helvetica'" font-size="16">Basal</text>
<text transform="matrix(1 0 0 1 783.3604 344.9399)" font-family="'Helvetica'" font-size="16">Her2</text>
<text transform="matrix(1 0 0 1 783.3604 362.2197)" font-family="'Helvetica'" font-size="16">LumA</text>
<text transform="matrix(1 0 0 1 783.3604 379.5)" font-family="'Helvetica'" font-size="16">LumB</text>
<text transform="matrix(1 0 0 1 783.3604 396.7803)"><tspan x="0" y="0" font-family="'Helvetica'" font-size="16">No</tspan><tspan x="20.453" y="0" font-family="'Helvetica'" font-size="16">r</tspan><tspan x="26.165" y="0" font-family="'Helvetica'" font-size="16">mal</tspan></text>
</svg>
